<?xml version="1.0" encoding="UTF-8"?><svg xmlns="http://www.w3.org/2000/svg" viewBox="0 0 1087.17 447.23"><defs><style>.d{fill:#fff;}.e{fill:#1576d1;}</style></defs><g id="a"/><g id="b"><g id="c"><g><path class="e" d="M36.5,416.75c0-7.66,.19-15.33-.06-22.98-.19-5.6-3.35-7.62-8.75-6.08-1.6,.45-3.21,1-4.66,1.79-12.06,6.58-24.93-6.96-22.79-17.88,2.71-13.87,5.1-27.83,7.07-41.82,1.93-13.76,3.15-27.62,4.68-41.43,.06-.5-.02-1.06,.19-1.48,5.72-11.54,5.36-24.48,7.56-36.7,1.86-10.31-.56-21.45-1.49-32.19-.72-8.29-2.22-16.5-3.06-24.78-.31-3.1-.26-6.43,.53-9.41,3.08-11.5,.59-22.32-2.64-33.35-1.58-5.38-1.11-11.35-1.63-17.05-.48-5.23-.64-10.54-1.7-15.65-1.41-6.83,.2-9.92,7.23-10.47,5.96-.47,11.99-.38,17.98-.24,4.52,.11,7.04-1.86,8.52-6.05,4.58-12.89,8.29-25.86,8.6-39.74,.27-12.19,5.71-16.67,17.93-16.86,22.63-.35,44.16,5.6,65.8,11.08,17.74,4.5,35.54,8.73,53.27,13.25,7.4,1.89,14.68,4.27,22.06,6.28,1.67,.45,3.91,1.02,5.19,.3,6.47-3.64,13.5-3.4,20.47-3.42,6.99-.02,13.53-1.36,19.53-5.02,4.94-3.01,10.18-3.78,15.84-2.4,6.02,1.47,11.83,.85,17.51-1.9,2.66-1.28,5.64-2.23,8.57-2.55,9.13-1.03,18.06-2.45,26.56-6.35,2.2-1.01,6.03-.86,7.82,.48,1.25,.94,1.02,5.07,.2,7.32-2.08,5.71-.67,10.47,1.67,15.77,1.84,4.17,1.8,9.18,2.58,13.82,.03,.15-.07,.32-.1,.49-1.96,11.84,1.37,16.59,13.24,18.8,4.26,.79,8.58,1.3,12.76,2.38,7.72,2,11.81,7.46,11.47,15.36-.89,20.91-1.8,41.82-3,62.71-.4,6.95-1.53,13.88-2.64,20.77-1.24,7.69-3.86,14.74-9.72,20.37-1.18,1.13-1.59,4.01-1.09,5.72,1.05,3.63,2.69,7.16,4.53,10.49,2.92,5.3,3.48,10.82,3.69,16.8,.19,5.43,1.88,11,3.88,16.12,1.57,4.03,2.78,7.61,1.5,11.96-1.81,6.14-.9,12.02,1.99,17.86,1.87,3.79,3.68,8.14,3.66,12.24-.05,11.23,3.2,21.64,6.16,32.22,1.55,5.57,2.4,11.35,3.44,17.06,1.76,9.63,3.36,19.3,5.15,28.93,1.83,9.84-1.26,13.8-11.33,13.79-8.99,0-18.06-1.14-26.94-.28-15.04,1.46-29.95,4.22-44.94,6.19-10.56,1.39-21.15,2.56-31.76,3.42-3.65,.3-6.17,.89-6.46,5.07-.08,1.13-.63,2.23-.99,3.35-3.81,11.97-11.76,16.51-23.81,13.45-12.72-3.23-25.45-6.45-38.09-9.98-3.09-.87-6.32-2.43-8.66-4.58-5.48-5.06-11.52-5.39-18.14-3.47-1.27,.37-2.56,.84-3.7,1.49-11.23,6.41-22.96,6.79-35.27,3.7-7.58-1.9-15.18-1.48-22.31,2.48-6.37,3.54-13.49,4.47-20.39,3.19-16.89-3.14-33.09-1.18-49.06,4.59-1.8,.65-3.96,.75-5.89,.56-7.07-.71-8.01-2.05-7.81-9.05,.18-6.16,.04-12.32,.04-18.49h.06ZM75.63,50.69c-1.33,0-2.67,0-4,0-8.35,.03-12.09,3.32-13.03,11.73-.3,2.64,.07,5.37-.35,7.98-1.24,7.68-1.44,15.86-4.39,22.86-6.01,14.29-9.47,28.97-11.04,44.26-1.78,17.28-6.73,34.05-7.05,51.65-.18,9.66-3.59,19.23-1.57,29.17,.39,1.94-.5,4.26-1.21,6.27-1.99,5.65-4.63,11.14-2.54,17.41,.27,.8-.15,1.97-.56,2.82-4.94,10.3-6.4,21.26-6.39,32.53,0,1.61-.41,3.25-.79,4.84-1.26,5.28-2.79,10.5-3.84,15.82-.93,4.71-1.42,9.5-1.99,14.28-.68,5.75-1.26,11.51-1.83,17.27-.22,2.25-.1,4.54-.49,6.76-2.15,12.27-4.82,24.47-6.48,36.81-1.06,7.87,4.96,12.07,12.21,8.69,7.67-3.58,14.39-2.4,21.25,1.72,5.69,3.42,11.26,7.37,17.42,9.63,29.54,10.83,59.53,20.25,90.55,25.96,7.49,1.38,15.09,2.58,22.68,2.92,6.59,.3,7.58-1.57,7.55-8.16-.01-2.89,.21-6.22,1.62-8.59,4.33-7.29,3.82-15.05,3.09-22.84-.22-2.32-1.31-5.34-3.05-6.59-6.94-4.98-12.88-11.34-21.66-13.89-4.97-1.45-10.43-4.6-13.48-8.64-7.59-10.05-13.94-21.03-20.75-31.67-.33-.52-.25-1.3-.45-1.92-2.48-7.77-7.9-14.62-7.35-23.35,0-.14-.2-.27-.25-.42-3.5-10.18-7.54-20.22-10.32-30.6-2.17-8.12-4.27-16.78-.94-25.08,4.24-10.6,5.41-21.56,5.51-32.78,.09-10.7,4.13-19.72,11.73-27.21,6.05-5.96,12.3-11.74,18.02-18.01,7.95-8.73,17.21-14.95,28.7-18.09,18.52-5.07,37.26-7.94,56.26-4.24,15.82,3.08,31.38,7.43,47.07,11.18,9.38,2.24,16.2,7.14,19.17,16.85,.84,2.74,3.25,4.98,4.75,7.55,3.75,6.43,7.76,12.74,10.96,19.44,3.15,6.58,4.96,13.82,8.29,20.29,1.68,3.26,5,6.36,8.34,7.91,4.4,2.05,9.59,2.31,14.35,3.68,11.88,3.44,19.33-.77,21.45-12.97,1.51-8.67,2.58-17.46,3.18-26.24,1.31-19.38,2.21-38.8,3.21-58.2,.08-1.47,.08-3.17-.58-4.39-.9-1.66-2.23-3.77-3.81-4.26-6.77-2.11-13.62-4.43-20.61-5.27-8.44-1.01-16.3-3.07-23.68-7.21-5.36-3.01-11-4.25-17.24-3.64-3.74,.37-7.76,.08-11.39-.9-28.57-7.73-57.04-15.81-85.6-23.55-24.39-6.61-48.95-12.61-73.28-19.44-18.17-5.1-36.47-9.05-55.34-10.12Zm116.36,288.32c2,0,4-.08,5.99,.01,7.28,.35,9.91,2.59,9.71,9.73-.16,5.77-.82,11.66-2.32,17.22-3.12,11.6-6.68,23.01-5.55,35.3,.3,3.23-.51,6.62-1.15,9.87-1.65,8.37,.78,13.61,8.92,16.34,10.4,3.49,20.98,6.48,31.58,9.32,4.12,1.1,8.5,1.67,12.76,1.66,5.11-.02,9.74-2.79,10.18-7.89,.6-6.97,4-13.37,4.47-19.83,1.48-20.3,10.11-38.17,16.84-56.72,1.48-4.07,3.77-6.44,8.7-6.56,3.49-.09,6.94-2.05,10.38-3.23,4.23-1.44,8.36-3.28,12.68-4.34,6.49-1.58,10.44-6.62,15.09-10.6,1.59-1.36,2.52-4.69,2.18-6.88-.94-6.05,.07-11.51,2.59-16.96,1.93-4.17,.24-7.55-3.41-9.81-6.01-3.72-12.55-4.52-19.18-2.02-13.54,5.1-26.96,10.5-40.49,15.63-9.84,3.74-19.82,5.6-30.13,1.52-1.24-.49-2.9,.09-4.37,.18-4.75,.29-9.58,1.21-14.25,.7-5.74-.63-11.37-2.4-17.01-3.79-7.3-1.8-14.64-3.58-19.23-10.43-.25-.38-.78-.69-1.24-.8-7.28-1.7-14.5-4.17-21.87-4.82-10.09-.89-14.18,4.81-11.55,14.41,.18,.64,.27,1.3,.42,1.95,4.47,19.53,23.95,31.7,39.24,30.84Zm68.5-38.96c4.3,1.64,6.33-.94,8.19-4.22,1.94-3.42,4.68-6.42,6.3-9.96,1.27-2.78,2.9-7.01,1.71-9.02-3.52-5.94-3.72-12.19-4.38-18.63-1.08-10.51-11.07-17.31-21.25-15-8.6,1.95-16.45,5.55-22.81,11.6-2.28,2.16-3.33,5.76-4.52,8.87-1.22,3.18-1.23,6.99-2.99,9.74-3.5,5.5-3.94,9.81,.4,14.93,5.84,6.88,13.42,10.91,22.43,11.61,5.61,.44,11.28,.08,16.92,.08Zm70.02-66.11c-22.8,.26-29.51,16.95-22.56,33.13,4.32,10.06,12.89,13.68,22.21,16.78,11.79,3.92,20.87-1.07,23.65-13.16,.41-1.78,.75-3.58,1.03-5.39,2.33-14.85-9.49-31.94-24.34-31.36Z"/><path class="e" d="M467.21,174.66c3.7-32.07-1.21-62.09-1.64-92.22-.15-10.66,.24-21.32,.2-31.99-.01-3.48,1.38-5.4,4.49-6.9,6.76-3.27,13.84-3.88,20.98-2.59,5.19,.94,8.63,4.62,10.91,9.42,6.18,12.98,8.35,26.95,10.07,41,1.21,9.91,1.91,19.88,3.17,29.78,1.45,11.47,6.42,21.6,12.97,30.97,2.86,4.1,4.57,4.08,7.6,.05,6.87-9.14,11.97-19.21,14.87-30.29,4.2-16.09,7.98-32.3,12.38-48.33,3.2-11.64,9.61-21.52,18.55-29.69,.98-.9,2.01-1.75,3.09-2.53,10.92-7.86,20.06-4.05,23.32,8.94,2.01,7.99-1.44,14.43-3.19,21.65-3.83,15.8-6.54,31.9-9.25,47.95-2.99,17.72-4.86,35.67-12.58,52.23-.35,.76-.54,1.68-1.08,2.24-7.58,7.79-4.4,16.31-1.32,24.49,11.52,30.48,23.17,60.91,35.02,91.27,8.53,21.85,16.82,43.75,22.36,66.62,.77,3.19,3.64,6,5.91,8.66,1.36,1.6,3.46,2.57,5.22,3.82,5.06,3.58,6.88,8.59,5.53,14.44-1.3,5.62-6.07,7.87-11.09,8.71-7.86,1.32-15.85,1.83-23.75,2.99-3.75,.55-5.61-.75-7.33-4.09-18.13-35.21-36.43-70.33-54.68-105.48-2.91-5.61-5.73-11.27-8.73-16.83-3.85-7.15-9.25-7.55-14.27-1.02-4.54,5.9-6.84,12.61-5.84,20.09,3.78,28.15,4.2,56.46,4.31,84.79,.03,7.83-.62,15.66-.58,23.48,.02,3.75-1.79,5.2-4.93,6.4-7.81,2.99-15.04,1.31-22.15-2.16-.9-.44-1.75-.96-2.64-1.41-7.78-3.91-12.06-9.52-12.87-18.86-2.57-29.69-5.83-59.32-9.2-88.94-3.06-26.95-6.67-53.84-9.92-80.77-1.51-12.55-2.73-25.13-3.89-35.91Z"/><path class="e" d="M890.75,321.35c2.58-21.98,5.49-46.93,8.44-71.88,3.04-25.79,6.35-51.54,9.03-77.37,.7-6.7-.36-13.61-.88-20.41-.72-9.41-.41-18.67,3.41-27.47,6.24-14.36,7.4-29.64,8.11-44.96,.86-18.64,1.49-37.28,2.05-55.93,.25-8.54,2.89-14.66,12.02-17.47,17.32-5.33,34.64-8.04,52.57-3.71,9.69,2.34,16.04,8.66,18.3,17.94,3.02,12.41,5.12,25.07,6.98,37.71,2.04,13.82,3.19,27.77,5.07,41.62,1.52,11.22,6.08,21.15,14.65,28.78,4.69,4.17,5.81,9.34,6.09,15.17,.56,11.46,.9,22.97,2.17,34.36,1.37,12.27,5.37,23.56,14.62,32.59,2.38,2.33,3.99,6.22,4.46,9.6,2.58,18.3,4.4,36.7,7.06,54.98,2.16,14.83,7.14,28.86,16.13,40.96,6.43,8.66,6.19,18.43,6.11,28.15-.02,2.27-2.97,5.26-5.32,6.64-9.15,5.37-19.21,6.26-29.45,4.08-7.31-1.56-11.45-7.05-13.06-13.77-2.64-10.97-4.48-22.14-6.48-33.25-1.58-8.75-3.59-17.24-8.97-24.63-9.96-13.66-21.62-18.11-37.95-14.03-12.73,3.18-25.47,6.36-38.08,9.97-1.96,.56-3.77,3.16-4.78,5.23-5.45,11.18-5.84,23.42-7.28,35.49-1.21,10.21-2.26,20.6-5.06,30.43-5,17.55-18.68,20.65-33.23,19.36-.99-.09-2.47-2.05-2.59-3.25-1.41-13.9-2.6-27.83-4.13-44.94Zm95.01-88.62c7.09-.59,11.61-4.06,13.37-9.83,2.37-7.76,3.8-15.81,5.45-23.77,.23-1.13-.31-2.66-.97-3.71-8.29-13.12-13.7-27.53-16.57-42.56-4.24-22.2-7.03-44.67-10.67-66.99-.33-2-2.1-5.09-3.56-5.3-3.01-.44-6.81-.58-8.02,3.91-2.6,9.62-5.89,19.09-7.97,28.82-5.99,27.98-11.44,56.07-17.3,84.08-.84,4.01-.68,7.35,1.62,10.84,4.47,6.77,8,14.28,13.21,20.4,2.62,3.08,8.41,5.78,12.13,5.1,6.76-1.22,13.18-3.24,19.3-.98Z"/><path class="e" d="M748.05,380.66c-8.81-1.55-17.86-2.29-26.38-4.84-14.98-4.48-21.36-16.73-25.7-30.71-2.64-8.52-6.48-16.66-9.75-24.99-.54-1.36-1.61-2.92-1.34-4.14,1.83-8.06,3.37-16.27,6.16-24.02,2.56-7.07,9.56-9.33,16.26-9.83,6.01-.45,12.26,.42,18.22,1.61,5.96,1.19,9.39,5.63,10.01,11.69,1.14,11.08,1.88,22.21,3.06,33.28,.95,8.91,4.19,16.75,13.5,19.79,9.85,3.21,19.71,1.49,26.17-6.38,13.4-16.33,24.03-34.26,20.21-56.87-2.68-15.9-10.29-29.67-20.97-41.36-13.69-14.99-28.43-29-42.47-43.68-10.11-10.57-19.77-21.57-29.7-32.31-3.27-3.53-6.37-7.39-10.23-10.15-9.61-6.88-13.91-16.71-16.56-27.59-5-20.48-1.55-40.7,2.03-60.91,1.68-9.51,3.02-19.08,5-28.52,.59-2.84,2.27-5.92,4.38-7.88,9.92-9.22,22.35-13.31,35.42-14.53,11.87-1.11,23.89-.54,35.84-.74,4.99-.09,10-.03,14.98-.44,6.4-.52,11.72,1.35,16.39,5.76,7.99,7.54,16.14,14.91,24.21,22.37,6.42,5.93,9.29,13.34,8.6,21.98-.7,8.79-1.67,17.56-2.77,26.31-.18,1.39-1.4,3.02-2.62,3.84-3.71,2.5-7.54,4.91-11.54,6.9-8.27,4.11-16.87,1.91-21.16-6.83-5.11-10.39-8.53-21.59-13.04-32.28-2.24-5.32-4.86-10.58-8.07-15.35-3.06-4.54-7.89-6.28-13.56-5.7-19.74,2-30.42,13.59-30.68,36.04-.11,9.42,2.76,18.97,5.01,28.28,2.07,8.56,5.61,16.77,7.65,25.33,2.53,10.62,8.5,18.23,16.93,24.96,27.85,22.21,52.39,47.76,73.64,76.36,12.63,16.98,21.29,35.77,22.79,57.2,1.39,19.9-3.83,38.3-14.34,55.09-5.12,8.17-13.6,12.71-21.92,16.9-20.45,10.31-39.93,14.83-63.68,16.38Z"/><path class="e" d="M967.78,405.71c21.82,0,43.64-.04,65.46,.03,6.97,.02,7.94,1.24,6.22,8.11-1.88,7.49-.4,14.56,2.13,21.5,1.53,4.19,.34,7.25-3.71,8.21-4.6,1.1-9.46,1.67-14.2,1.58-19.47-.36-38.94-1.54-58.41-1.49-24.48,.06-48.97,1.7-73.44,1.45-40.15-.41-80.28-2.08-120.42-2.58-11.05-.14-22.13,2.05-33.21,3.06-2.59,.24-5.23,.15-7.84,0-14.75-.78-29.61-3.08-44.23-2.02-14.53,1.05-28.88,1.86-43.31,.04-17.35-2.19-34.58-.6-51.84,1.03-3.96,.38-8.08,.68-11.95,0-2.49-.44-4.66-2.75-6.97-4.22,2.01-2.89,1.46-7.71,6.84-8.04,9.14-.55,18.25-1.51,27.38-2.24,30.21-2.4,60.42-4.9,90.65-7.12,30.4-2.23,60.81-4.34,91.24-6.2,54.7-3.35,109.4-6.49,164.11-9.65,5.15-.3,10.33-.04,15.49-.04,0-.48,0-.96,0-1.43Z"/><path class="d" d="M260.49,300.05c-5.64,0-11.31,.36-16.92-.08-9-.7-16.59-4.73-22.43-11.61-4.35-5.12-3.9-9.43-.4-14.93,1.76-2.76,1.77-6.57,2.99-9.74,1.19-3.11,2.25-6.71,4.52-8.87,6.36-6.05,14.22-9.65,22.81-11.6,10.18-2.31,20.17,4.49,21.25,15,.66,6.44,.86,12.69,4.38,18.63,1.19,2.01-.43,6.23-1.71,9.02-1.62,3.54-4.36,6.54-6.3,9.96-1.86,3.28-3.89,5.86-8.19,4.22Z"/></g></g></g></svg>