<?xml version="1.0" encoding="utf-8"?>
<!-- Generator: Adobe Illustrator 25.4.1, SVG Export Plug-In . SVG Version: 6.00 Build 0)  -->
<svg version="1.1" id="Layer_1" xmlns="http://www.w3.org/2000/svg" xmlns:xlink="http://www.w3.org/1999/xlink" x="0px" y="0px"
	 viewBox="0 0 1087.2 447.2" style="enable-background:new 0 0 1087.2 447.2;" xml:space="preserve">
<style type="text/css">
	.st0{fill:#FFFFFF;}
</style>
<g id="a">
</g>
<g id="b">
	<g id="c">
		<g>
			<path class="st0" d="M36.5,416.8c0-7.7,0.2-15.3-0.1-23c-0.2-5.6-3.3-7.6-8.8-6.1c-1.6,0.5-3.2,1-4.7,1.8
				c-12.1,6.6-24.9-7-22.8-17.9c2.7-13.9,5.1-27.8,7.1-41.8c1.9-13.8,3.2-27.6,4.7-41.4c0.1-0.5,0-1.1,0.2-1.5
				c5.7-11.5,5.4-24.5,7.6-36.7c1.9-10.3-0.6-21.4-1.5-32.2c-0.7-8.3-2.2-16.5-3.1-24.8c-0.3-3.1-0.3-6.4,0.5-9.4
				c3.1-11.5,0.6-22.3-2.6-33.3c-1.6-5.4-1.1-11.4-1.6-17.1c-0.5-5.2-0.6-10.5-1.7-15.7c-1.4-6.8,0.2-9.9,7.2-10.5
				c6-0.5,12-0.4,18-0.2c4.5,0.1,7-1.9,8.5-6.1c4.6-12.9,8.3-25.9,8.6-39.7C52.4,49,57.8,44.6,70,44.4c22.6-0.3,44.2,5.6,65.8,11.1
				c17.7,4.5,35.5,8.7,53.3,13.2c7.4,1.9,14.7,4.3,22.1,6.3c1.7,0.4,3.9,1,5.2,0.3c6.5-3.6,13.5-3.4,20.5-3.4c7,0,13.5-1.4,19.5-5
				c4.9-3,10.2-3.8,15.8-2.4c6,1.5,11.8,0.8,17.5-1.9c2.7-1.3,5.6-2.2,8.6-2.5c9.1-1,18.1-2.5,26.6-6.3c2.2-1,6-0.9,7.8,0.5
				c1.2,0.9,1,5.1,0.2,7.3c-2.1,5.7-0.7,10.5,1.7,15.8c1.8,4.2,1.8,9.2,2.6,13.8c0,0.2-0.1,0.3-0.1,0.5c-2,11.8,1.4,16.6,13.2,18.8
				c4.3,0.8,8.6,1.3,12.8,2.4c7.7,2,11.8,7.5,11.5,15.4c-0.9,20.9-1.8,41.8-3,62.7c-0.4,6.9-1.5,13.9-2.6,20.8
				c-1.2,7.7-3.9,14.7-9.7,20.4c-1.2,1.1-1.6,4-1.1,5.7c1,3.6,2.7,7.2,4.5,10.5c2.9,5.3,3.5,10.8,3.7,16.8c0.2,5.4,1.9,11,3.9,16.1
				c1.6,4,2.8,7.6,1.5,12c-1.8,6.1-0.9,12,2,17.9c1.9,3.8,3.7,8.1,3.7,12.2c0,11.2,3.2,21.6,6.2,32.2c1.5,5.6,2.4,11.4,3.4,17.1
				c1.8,9.6,3.4,19.3,5.1,28.9c1.8,9.8-1.3,13.8-11.3,13.8c-9,0-18.1-1.1-26.9-0.3c-15,1.5-30,4.2-44.9,6.2
				c-10.6,1.4-21.1,2.6-31.8,3.4c-3.6,0.3-6.2,0.9-6.5,5.1c-0.1,1.1-0.6,2.2-1,3.4c-3.8,12-11.8,16.5-23.8,13.5
				c-12.7-3.2-25.4-6.5-38.1-10c-3.1-0.9-6.3-2.4-8.7-4.6c-5.5-5.1-11.5-5.4-18.1-3.5c-1.3,0.4-2.6,0.8-3.7,1.5
				c-11.2,6.4-23,6.8-35.3,3.7c-7.6-1.9-15.2-1.5-22.3,2.5c-6.4,3.5-13.5,4.5-20.4,3.2c-16.9-3.1-33.1-1.2-49.1,4.6
				c-1.8,0.6-4,0.8-5.9,0.6c-7.1-0.7-8-2-7.8-9C36.6,429.1,36.5,422.9,36.5,416.8L36.5,416.8L36.5,416.8z M75.6,50.7
				c-1.3,0-2.7,0-4,0c-8.3,0-12.1,3.3-13,11.7c-0.3,2.6,0.1,5.4-0.3,8c-1.2,7.7-1.4,15.9-4.4,22.9c-6,14.3-9.5,29-11,44.3
				c-1.8,17.3-6.7,34.1-7,51.7c-0.2,9.7-3.6,19.2-1.6,29.2c0.4,1.9-0.5,4.3-1.2,6.3c-2,5.6-4.6,11.1-2.5,17.4c0.3,0.8-0.1,2-0.6,2.8
				c-4.9,10.3-6.4,21.3-6.4,32.5c0,1.6-0.4,3.2-0.8,4.8c-1.3,5.3-2.8,10.5-3.8,15.8c-0.9,4.7-1.4,9.5-2,14.3
				c-0.7,5.8-1.3,11.5-1.8,17.3c-0.2,2.2-0.1,4.5-0.5,6.8c-2.1,12.3-4.8,24.5-6.5,36.8c-1.1,7.9,5,12.1,12.2,8.7
				c7.7-3.6,14.4-2.4,21.2,1.7c5.7,3.4,11.3,7.4,17.4,9.6c29.5,10.8,59.5,20.2,90.6,26c7.5,1.4,15.1,2.6,22.7,2.9
				c6.6,0.3,7.6-1.6,7.6-8.2c0-2.9,0.2-6.2,1.6-8.6c4.3-7.3,3.8-15,3.1-22.8c-0.2-2.3-1.3-5.3-3.1-6.6c-6.9-5-12.9-11.3-21.7-13.9
				c-5-1.5-10.4-4.6-13.5-8.6c-7.6-10-13.9-21-20.8-31.7c-0.3-0.5-0.2-1.3-0.4-1.9c-2.5-7.8-7.9-14.6-7.3-23.4
				c0-0.1-0.2-0.3-0.2-0.4c-3.5-10.2-7.5-20.2-10.3-30.6c-2.2-8.1-4.3-16.8-0.9-25.1c4.2-10.6,5.4-21.6,5.5-32.8
				c0.1-10.7,4.1-19.7,11.7-27.2c6.1-6,12.3-11.7,18-18c7.9-8.7,17.2-14.9,28.7-18.1c18.5-5.1,37.3-7.9,56.3-4.2
				c15.8,3.1,31.4,7.4,47.1,11.2c9.4,2.2,16.2,7.1,19.2,16.9c0.8,2.7,3.2,5,4.8,7.6c3.8,6.4,7.8,12.7,11,19.4
				c3.1,6.6,5,13.8,8.3,20.3c1.7,3.3,5,6.4,8.3,7.9c4.4,2.1,9.6,2.3,14.4,3.7c11.9,3.4,19.3-0.8,21.5-13c1.5-8.7,2.6-17.5,3.2-26.2
				c1.3-19.4,2.2-38.8,3.2-58.2c0.1-1.5,0.1-3.2-0.6-4.4c-0.9-1.7-2.2-3.8-3.8-4.3c-6.8-2.1-13.6-4.4-20.6-5.3
				c-8.4-1-16.3-3.1-23.7-7.2c-5.4-3-11-4.2-17.2-3.6c-3.7,0.4-7.8,0.1-11.4-0.9c-28.6-7.7-57-15.8-85.6-23.6
				c-24.4-6.6-48.9-12.6-73.3-19.4C112.8,55.7,94.5,51.8,75.6,50.7L75.6,50.7z M192,339c2,0,4-0.1,6,0c7.3,0.4,9.9,2.6,9.7,9.7
				c-0.2,5.8-0.8,11.7-2.3,17.2c-3.1,11.6-6.7,23-5.6,35.3c0.3,3.2-0.5,6.6-1.1,9.9c-1.6,8.4,0.8,13.6,8.9,16.3
				c10.4,3.5,21,6.5,31.6,9.3c4.1,1.1,8.5,1.7,12.8,1.7c5.1,0,9.7-2.8,10.2-7.9c0.6-7,4-13.4,4.5-19.8c1.5-20.3,10.1-38.2,16.8-56.7
				c1.5-4.1,3.8-6.4,8.7-6.6c3.5-0.1,6.9-2,10.4-3.2c4.2-1.4,8.4-3.3,12.7-4.3c6.5-1.6,10.4-6.6,15.1-10.6c1.6-1.4,2.5-4.7,2.2-6.9
				c-0.9-6,0.1-11.5,2.6-17c1.9-4.2,0.2-7.5-3.4-9.8c-6-3.7-12.5-4.5-19.2-2c-13.5,5.1-27,10.5-40.5,15.6
				c-9.8,3.7-19.8,5.6-30.1,1.5c-1.2-0.5-2.9,0.1-4.4,0.2c-4.8,0.3-9.6,1.2-14.2,0.7c-5.7-0.6-11.4-2.4-17-3.8
				c-7.3-1.8-14.6-3.6-19.2-10.4c-0.2-0.4-0.8-0.7-1.2-0.8c-7.3-1.7-14.5-4.2-21.9-4.8c-10.1-0.9-14.2,4.8-11.6,14.4
				c0.2,0.6,0.3,1.3,0.4,2C157.2,327.7,176.7,339.9,192,339L192,339z M260.5,300.1c4.3,1.6,6.3-0.9,8.2-4.2c1.9-3.4,4.7-6.4,6.3-10
				c1.3-2.8,2.9-7,1.7-9c-3.5-5.9-3.7-12.2-4.4-18.6c-1.1-10.5-11.1-17.3-21.2-15c-8.6,1.9-16.4,5.6-22.8,11.6
				c-2.3,2.2-3.3,5.8-4.5,8.9c-1.2,3.2-1.2,7-3,9.7c-3.5,5.5-3.9,9.8,0.4,14.9c5.8,6.9,13.4,10.9,22.4,11.6
				C249.2,300.4,254.8,300,260.5,300.1L260.5,300.1z M330.5,233.9c-22.8,0.3-29.5,16.9-22.6,33.1c4.3,10.1,12.9,13.7,22.2,16.8
				c11.8,3.9,20.9-1.1,23.6-13.2c0.4-1.8,0.8-3.6,1-5.4C357.2,250.4,345.3,233.4,330.5,233.9L330.5,233.9z"/>
			<path class="st0" d="M467.2,174.7c3.7-32.1-1.2-62.1-1.6-92.2c-0.1-10.7,0.2-21.3,0.2-32c0-3.5,1.4-5.4,4.5-6.9
				c6.8-3.3,13.8-3.9,21-2.6c5.2,0.9,8.6,4.6,10.9,9.4c6.2,13,8.4,26.9,10.1,41c1.2,9.9,1.9,19.9,3.2,29.8c1.5,11.5,6.4,21.6,13,31
				c2.9,4.1,4.6,4.1,7.6,0.1c6.9-9.1,12-19.2,14.9-30.3c4.2-16.1,8-32.3,12.4-48.3c3.2-11.6,9.6-21.5,18.5-29.7c1-0.9,2-1.8,3.1-2.5
				c10.9-7.9,20.1-4,23.3,8.9c2,8-1.4,14.4-3.2,21.6c-3.8,15.8-6.5,31.9-9.2,48c-3,17.7-4.9,35.7-12.6,52.2
				c-0.3,0.8-0.5,1.7-1.1,2.2c-7.6,7.8-4.4,16.3-1.3,24.5c11.5,30.5,23.2,60.9,35,91.3c8.5,21.9,16.8,43.8,22.4,66.6
				c0.8,3.2,3.6,6,5.9,8.7c1.4,1.6,3.5,2.6,5.2,3.8c5.1,3.6,6.9,8.6,5.5,14.4c-1.3,5.6-6.1,7.9-11.1,8.7c-7.9,1.3-15.8,1.8-23.8,3
				c-3.8,0.5-5.6-0.8-7.3-4.1c-18.1-35.2-36.4-70.3-54.7-105.5c-2.9-5.6-5.7-11.3-8.7-16.8c-3.8-7.1-9.2-7.5-14.3-1
				c-4.5,5.9-6.8,12.6-5.8,20.1c3.8,28.1,4.2,56.5,4.3,84.8c0,7.8-0.6,15.7-0.6,23.5c0,3.8-1.8,5.2-4.9,6.4c-7.8,3-15,1.3-22.1-2.2
				c-0.9-0.4-1.8-1-2.6-1.4c-7.8-3.9-12.1-9.5-12.9-18.9c-2.6-29.7-5.8-59.3-9.2-88.9c-3.1-27-6.7-53.8-9.9-80.8
				C469.6,198,468.4,185.4,467.2,174.7L467.2,174.7z"/>
			<path class="st0" d="M890.8,321.4c2.6-22,5.5-46.9,8.4-71.9c3-25.8,6.3-51.5,9-77.4c0.7-6.7-0.4-13.6-0.9-20.4
				c-0.7-9.4-0.4-18.7,3.4-27.5c6.2-14.4,7.4-29.6,8.1-45c0.9-18.6,1.5-37.3,2-55.9c0.2-8.5,2.9-14.7,12-17.5
				c17.3-5.3,34.6-8,52.6-3.7c9.7,2.3,16,8.7,18.3,17.9c3,12.4,5.1,25.1,7,37.7c2,13.8,3.2,27.8,5.1,41.6
				c1.5,11.2,6.1,21.2,14.7,28.8c4.7,4.2,5.8,9.3,6.1,15.2c0.6,11.5,0.9,23,2.2,34.4c1.4,12.3,5.4,23.6,14.6,32.6
				c2.4,2.3,4,6.2,4.5,9.6c2.6,18.3,4.4,36.7,7.1,55c2.2,14.8,7.1,28.9,16.1,41c6.4,8.7,6.2,18.4,6.1,28.1c0,2.3-3,5.3-5.3,6.6
				c-9.2,5.4-19.2,6.3-29.4,4.1c-7.3-1.6-11.4-7-13.1-13.8c-2.6-11-4.5-22.1-6.5-33.2c-1.6-8.8-3.6-17.2-9-24.6
				c-10-13.7-21.6-18.1-38-14c-12.7,3.2-25.5,6.4-38.1,10c-2,0.6-3.8,3.2-4.8,5.2c-5.5,11.2-5.8,23.4-7.3,35.5
				c-1.2,10.2-2.3,20.6-5.1,30.4c-5,17.5-18.7,20.6-33.2,19.4c-1-0.1-2.5-2-2.6-3.2C893.5,352.4,892.3,338.4,890.8,321.4
				L890.8,321.4z M985.8,232.7c7.1-0.6,11.6-4.1,13.4-9.8c2.4-7.8,3.8-15.8,5.5-23.8c0.2-1.1-0.3-2.7-1-3.7
				c-8.3-13.1-13.7-27.5-16.6-42.6c-4.2-22.2-7-44.7-10.7-67c-0.3-2-2.1-5.1-3.6-5.3c-3-0.4-6.8-0.6-8,3.9c-2.6,9.6-5.9,19.1-8,28.8
				c-6,28-11.4,56.1-17.3,84.1c-0.8,4-0.7,7.4,1.6,10.8c4.5,6.8,8,14.3,13.2,20.4c2.6,3.1,8.4,5.8,12.1,5.1
				C973.2,232.5,979.7,230.5,985.8,232.7L985.8,232.7z"/>
			<path class="st0" d="M748,380.7c-8.8-1.5-17.9-2.3-26.4-4.8c-15-4.5-21.4-16.7-25.7-30.7c-2.6-8.5-6.5-16.7-9.8-25
				c-0.5-1.4-1.6-2.9-1.3-4.1c1.8-8.1,3.4-16.3,6.2-24c2.6-7.1,9.6-9.3,16.3-9.8c6-0.5,12.3,0.4,18.2,1.6c6,1.2,9.4,5.6,10,11.7
				c1.1,11.1,1.9,22.2,3.1,33.3c1,8.9,4.2,16.8,13.5,19.8c9.8,3.2,19.7,1.5,26.2-6.4c13.4-16.3,24-34.3,20.2-56.9
				c-2.7-15.9-10.3-29.7-21-41.4c-13.7-15-28.4-29-42.5-43.7c-10.1-10.6-19.8-21.6-29.7-32.3c-3.3-3.5-6.4-7.4-10.2-10.1
				c-9.6-6.9-13.9-16.7-16.6-27.6c-5-20.5-1.5-40.7,2-60.9c1.7-9.5,3-19.1,5-28.5c0.6-2.8,2.3-5.9,4.4-7.9
				c9.9-9.2,22.3-13.3,35.4-14.5c11.9-1.1,23.9-0.5,35.8-0.7c5-0.1,10,0,15-0.4c6.4-0.5,11.7,1.4,16.4,5.8
				c8,7.5,16.1,14.9,24.2,22.4c6.4,5.9,9.3,13.3,8.6,22c-0.7,8.8-1.7,17.6-2.8,26.3c-0.2,1.4-1.4,3-2.6,3.8
				c-3.7,2.5-7.5,4.9-11.5,6.9c-8.3,4.1-16.9,1.9-21.2-6.8c-5.1-10.4-8.5-21.6-13-32.3c-2.2-5.3-4.9-10.6-8.1-15.3
				c-3.1-4.5-7.9-6.3-13.6-5.7c-19.7,2-30.4,13.6-30.7,36c-0.1,9.4,2.8,19,5,28.3c2.1,8.6,5.6,16.8,7.7,25.3
				c2.5,10.6,8.5,18.2,16.9,25c27.8,22.2,52.4,47.8,73.6,76.4c12.6,17,21.3,35.8,22.8,57.2c1.4,19.9-3.8,38.3-14.3,55.1
				c-5.1,8.2-13.6,12.7-21.9,16.9C791.3,374.6,771.8,379.1,748,380.7L748,380.7z"/>
			<path class="st0" d="M967.8,405.7c21.8,0,43.6,0,65.5,0c7,0,7.9,1.2,6.2,8.1c-1.9,7.5-0.4,14.6,2.1,21.5c1.5,4.2,0.3,7.2-3.7,8.2
				c-4.6,1.1-9.5,1.7-14.2,1.6c-19.5-0.4-38.9-1.5-58.4-1.5c-24.5,0.1-49,1.7-73.4,1.5c-40.2-0.4-80.3-2.1-120.4-2.6
				c-11-0.1-22.1,2-33.2,3.1c-2.6,0.2-5.2,0.1-7.8,0c-14.8-0.8-29.6-3.1-44.2-2c-14.5,1-28.9,1.9-43.3,0c-17.3-2.2-34.6-0.6-51.8,1
				c-4,0.4-8.1,0.7-12,0c-2.5-0.4-4.7-2.8-7-4.2c2-2.9,1.5-7.7,6.8-8c9.1-0.5,18.2-1.5,27.4-2.2c30.2-2.4,60.4-4.9,90.7-7.1
				c30.4-2.2,60.8-4.3,91.2-6.2c54.7-3.4,109.4-6.5,164.1-9.6c5.2-0.3,10.3,0,15.5,0C967.8,406.6,967.8,406.2,967.8,405.7
				L967.8,405.7z"/>
		</g>
	</g>
</g>
</svg>
