<?xml version="1.0" encoding="utf-8"?>
<!-- Generator: Adobe Illustrator 26.0.2, SVG Export Plug-In . SVG Version: 6.00 Build 0)  -->
<svg version="1.1" id="Layer_1" xmlns="http://www.w3.org/2000/svg" xmlns:xlink="http://www.w3.org/1999/xlink" x="0px" y="0px"
	 viewBox="0 0 840 859" style="enable-background:new 0 0 840 859;" xml:space="preserve">
<style type="text/css">
	.st0{fill:#FFFFFF;}
</style>
<g id="Layer_2_00000172437277492838505180000009001525762299454127_">
	<g id="Layer_1-2">
		<path class="st0" d="M6.4,472.3C-1.7,350.8,29.2,249.6,102,162.7C169.1,82.6,255.1,33.4,358.6,18.5
			c123-17.8,234.2,12.6,329.9,92.3c83.4,69.5,133,159.5,146,267.4c15.2,125.6-20,237.1-104.5,331.4C661.6,786,575,831.3,473.2,843.5
			c-117,14.1-222.9-15.8-314.6-90.5C67,678.5,17.4,581.1,6.4,472.3z M452.4,802.5l0.1-1c9.7-1.2,19.5-1.8,29.1-3.8
			c17.1-3.5,34.3-7.1,51-12.2c15.3-4.7,30.3-10.9,44.9-17.5c34.9-15.9,67.1-37.2,95.2-63.3c13-11.9,11.8-6.5,4.4-23.1
			c-0.1-0.2-0.1-0.3-0.2-0.5c-15.9-34.4-38.5-63.9-66.5-89.3c-17.1-15.5-36-28.7-56.4-39.4c-17.3-9.2-35.5-16.6-54.4-22
			c-10.5-2.9-21.1-5.1-31.9-6.6c-12.3-1.9-24.6-3.8-37-4.2c-11.6-0.5-23.3,0.5-34.8,1.5s-23.1,2.1-34.3,4.5
			c-47.1,10.2-90.8,32.3-127,64.1c-19.5,17.3-37.1,36.4-50.5,58.9c-8.1,13.8-15.3,28-22.9,42.1c-1.4,2.5-1.5,4.9,1,7
			c11.9,10,23.1,21,35.8,29.9c16.5,11.7,33.8,22.5,51.4,32.6c19.2,10.9,39.7,19.5,61,25.4c18.7,5.3,37.9,9,57,12.4
			c13.2,2.3,26.6,3.7,40,4.2C422.4,803,437.4,802.5,452.4,802.5L452.4,802.5z M420.5,475.2c82.5-0.2,148.7-65.2,149.7-147.1
			c1.1-83.6-65.4-151.5-149.8-151c-82.3,0.5-146.2,64.7-148.1,145.1C270.2,408.6,338.5,474.1,420.5,475.2L420.5,475.2z"/>
	</g>
</g>
</svg>
