<?xml version="1.0" encoding="UTF-8"?><svg id="Layer_2" xmlns="http://www.w3.org/2000/svg" viewBox="0 0 1255.23 1407.31"><defs><style>.cls-1{fill:#3174bb;}</style></defs><g id="Layer_1-2"><g><path class="cls-1" d="M0,1258.25C0,939.21,0,620.18,0,301.14c1.53-7.62,2.95-15.26,4.59-22.86,14.15-65.23,74.66-119.16,140.92-124.55,21.3-1.73,42.8-1.13,64.2-1.58,2.73-.06,5.46,0,9.9,0,0-21.65-1.81-42.2,.37-62.31,4.76-43.78,40.83-81.05,82.83-88.26,45.63-7.83,89.23,14.21,110.14,55.71,7.9,15.67,11.53,32.37,11.66,49.85,.11,14.79,.02,29.59,.02,44.6h105.76c0-15.26-1.05-30.19,.3-44.9,1.3-14.14,2.82-29.01,8.2-41.9C555.3,25.66,585.51,2.5,628.33,.34c43.13-2.18,75.18,18.03,96,55.7,10.13,18.33,13.06,38.35,12.56,59.07-.29,12.16-.05,24.33-.05,36.46h105.64c0-3.93-.09-7.28,.01-10.62,.56-18.26-.63-36.79,2.1-54.72,8.92-58.55,67.47-97.09,124.89-83.43,44.72,10.63,78.3,52.89,78.83,99.4,.19,16.4,.03,32.79,.03,50.01,4.62,0,8.22-.14,11.79,.02,20.04,.93,40.57-.53,60.04,3.34,68.11,13.53,111.32,55.06,130.02,121.88,2.44,8.73,3.4,17.87,5.05,26.82v950.84c-.5,2.24-1.17,4.45-1.49,6.72-9.2,65.55-44.86,110.61-106.06,134.94-13.61,5.41-28.68,7.12-43.08,10.54H150.63c-2.01-.48-4-1.13-6.04-1.43-66.11-9.83-111.16-46.2-135.01-108.36-4.79-12.48-6.47-26.15-9.58-39.27ZM96.33,393.96c0,4.01,0,7.11,0,10.21-.01,192.2-.03,384.4-.04,576.6,0,86.03,.08,172.07-.01,258.1-.02,22.08,6.96,40.91,23.87,55.67,15.1,13.17,33.02,16.71,52.45,16.69,194.81-.14,389.63-.08,584.44-.08,110.35,0,220.71,.09,331.06-.04,41.08-.05,70.09-29.21,70.34-70.1,.05-8.89,.04-17.78,.04-26.67,0-134.66-.01-269.33,0-403.99,0-136.23,.01-272.46,0-408.7,0-2.49-.33-4.98-.53-7.68H96.33Zm492.25-193.21s-.06,0-.08,0c0,32.66-.31,65.33,.11,97.99,.27,21.03,16.11,39.13,37.15,43.93,17.84,4.07,38.52-5.9,46.99-24.68,3.93-8.71,5.81-19.06,5.89-28.69,.52-59.32,.28-118.64,.21-177.96,0-4.68-.4-9.4-1.05-14.05-3.76-26.89-29.84-44.63-55.6-37.94-18.26,4.75-33.31,23.26-33.52,42.63-.36,32.92-.1,65.85-.1,98.77Zm-222.1-.46c-.06,0-.12,0-.18,0,0-32.4,.49-64.81-.18-97.2-.41-19.71-10.32-34.64-28.75-42.02-29.61-11.85-60.46,9.85-60.87,43.73-.78,64.01-.79,128.04,0,192.05,.4,32.88,31.05,54.33,59.89,43.67,18.3-6.77,29.85-24.07,30.02-46.15,.25-31.35,.06-62.71,.06-94.07Zm534.11,.12h-.02c0,32.14-.19,64.29,.05,96.43,.25,33.02,32.92,55.65,62.1,42.64,19.78-8.82,28.12-25.55,28.17-46.7,.11-42.86,.15-85.71,.14-128.57,0-20.38,.46-40.79-.5-61.13-1.26-26.64-22.05-46.24-46.53-45.23-24.66,1.02-43.35,21.86-43.39,48.47-.04,31.36-.01,62.72-.01,94.08Z"/><path class="cls-1" d="M183.95,932.94v-157.28h176.53v157.28H183.95Z"/><path class="cls-1" d="M420.65,932.84v-157.09h176.68v157.09h-176.68Z"/><path class="cls-1" d="M834.04,933.21h-176.06v-157.64h176.06v157.64Z"/><path class="cls-1" d="M1071.28,933.25h-176.38v-157.61h176.38v157.61Z"/><path class="cls-1" d="M894.46,721.92v-156.57h176.65v156.57h-176.65Z"/><path class="cls-1" d="M834.17,722.06h-176.36v-156.74h176.36v156.74Z"/><path class="cls-1" d="M184.11,565.04h176.34v157.05H184.11v-157.05Z"/><path class="cls-1" d="M597.48,565.22v156.79h-176.79v-156.79h176.79Z"/><path class="cls-1" d="M184.08,986.7h176.25v156.56H184.08v-156.56Z"/><path class="cls-1" d="M420.68,1143.32v-156.41h176.7v156.41h-176.7Z"/><path class="cls-1" d="M657.92,986.68h176.28v156.63h-176.28v-156.63Z"/><path class="cls-1" d="M1071.24,1143.57h-176.56v-156.71h176.56v156.71Z"/></g></g></svg>