<?xml version="1.0" encoding="UTF-8"?>
<svg id="Layer_2" data-name="Layer 2" xmlns="http://www.w3.org/2000/svg" viewBox="0 0 359.73 290.57">
  <defs>
    <style>
      .cls-1 {
        fill: #f1f2f2;
      }
    </style>
  </defs>
  <g id="Layer_1-2" data-name="Layer 1">
    <path class="cls-1" d="m124.96,178.93c1.94-1.83,3.85-3.54,5.66-5.35,33.03-33.02,66.05-66.04,99.05-99.08,14.37-14.38,28.65-28.85,43.02-43.23,9.54-9.55,19.14-19.03,28.72-28.55.77-.77,1.5-1.59,2.3-2.33.92-.86,1.54-.1,2.15.51,4.48,4.49,8.95,8.99,13.44,13.48,13.12,13.13,26.25,26.25,39.37,39.38,1.5,1.5,1.52,1.51-.51,3.54-7.27,7.27-14.56,14.52-21.83,21.79-69.44,69.45-138.89,138.91-208.32,208.37-.95.95-1.76,2.02-2.72,3.13-.75-.71-1.17-1.1-1.58-1.5C83.21,248.57,42.71,208.07,2.21,167.56c-.82-.82-2.02-1.61-2.21-2.58-.12-.63,1.23-1.59,1.98-2.34,6.78-6.81,13.57-13.61,20.37-20.4,8.02-8.02,16.04-16.03,24.06-24.04,2.54-2.53,5.13-5.01,7.59-7.61,1.02-1.08,1.61-1.06,2.66,0,15.83,15.9,31.71,31.76,47.58,47.63,5.94,5.94,11.88,11.88,17.82,17.82.93.93,1.86,1.87,2.89,2.89Z"/>
  </g>
</svg>