<?xml version="1.0" encoding="UTF-8"?><svg id="Layer_2" xmlns="http://www.w3.org/2000/svg" viewBox="0 0 959.18 958.37"><defs><style>.cls-1{fill:#1576d1;}</style></defs><g id="Layer_1-2"><g><path class="cls-1" d="M480.53,0c265.14,.22,478.82,214.43,478.65,479.83-.17,264.23-215.91,479.09-480.5,478.54C212.65,957.81-.9,742.04,0,474.72,.89,212.44,216.15-.22,480.53,0Zm424.87,477.42c-.48-233.12-193.92-424.55-428.12-423.65C245.04,54.65,54.09,246.29,53.84,478.76c-.25,233.16,192.82,425.92,426.43,425.73,233.2-.19,425.61-193.48,425.13-427.07Z"/><path class="cls-1" d="M452.69,306.09c0-54.6,.22-109.19-.11-163.79-.12-19.48,3.89-36.44,27.11-36.41,23.27,.03,27.05,17.16,27.01,36.54-.21,99.36-.88,198.74,.76,298.08,.25,15.3,8.17,33.67,18.62,45.02,36.2,39.33,75,76.27,112.98,113.96,13.63,13.53,23.45,28.91,7.23,45.17-15.62,15.66-31.26,8.19-45.29-5.95-44.59-44.96-90.24-88.89-133.87-134.75-8.51-8.94-13.44-24.63-13.8-37.38-1.5-53.46-.63-106.99-.63-160.5Z"/></g></g></svg>