<svg xmlns="http://www.w3.org/2000/svg" viewBox="0 0 732.31 689.29"><g id="Layer_2" data-name="Layer 2"><g id="Layer_1-2" data-name="Layer 1"><path d="M732.28,79.89c.57,14.46-6.06,28.92-13.65,43.16-6.48,12.15-12.62,24.48-18.9,36.72q-42.06,82-84.13,164Q542.64,466,469.71,608.16a25.57,25.57,0,0,1-10.79,11.21c-33.42,18.73-66.7,37.73-100,56.62-9.75,5.54-16.66,2.06-17.85-8.92-4.22-39.26-8.54-78.51-12.53-117.79-.34-3.37.8-7.28,2.36-10.39,10.29-20.53,20.88-40.91,31.37-61.34L488,232.59q48.13-93.81,96.23-187.65C597.3,19.3,617.69,3.78,646.42.51,692.56-4.74,732.27,31.2,732.28,79.89ZM453.91,594.29Q577.69,353.12,701.12,112.67L599.25,60.42c-1.16,2.16-2,3.61-2.71,5.07q-21.33,41.57-42.64,83.13Q505.47,243,457,337.41q-30.22,58.89-60.5,117.76c-14.15,27.56-28.24,55.15-42.49,82.65-1.79,3.46-1.3,5.29,2.21,7,6.58,3.14,13,6.62,19.52,9.91,13.35,6.74,26.74,13.41,40.09,20.17C428.29,581.16,440.69,587.54,453.91,594.29ZM709,93.86c10.84-23.4-4.89-57.44-31.37-68.93-24.08-10.46-59.8-.95-67.46,18.24ZM359.89,652.11l77-43.71-86.62-44.48C353.53,593.79,356.65,622.42,359.89,652.11Z"/><path d="M144.85,689.28H13.94a30.32,30.32,0,0,1-6-.36,10,10,0,0,1-.07-19.59,26.88,26.88,0,0,1,5.46-.41q131.42,0,262.83,0a35.78,35.78,0,0,1,5.48.21,10.05,10.05,0,0,1,.07,19.93,34.47,34.47,0,0,1-5.48.2Z"/></g></g></svg>