<?xml version="1.0" encoding="utf-8"?>
<!-- Generator: Adobe Illustrator 26.4.1, SVG Export Plug-In . SVG Version: 6.00 Build 0)  -->
<svg version="1.1" id="Layer_1" xmlns="http://www.w3.org/2000/svg" xmlns:xlink="http://www.w3.org/1999/xlink" x="0px" y="0px"
	 viewBox="0 0 1200 1200" style="enable-background:new 0 0 1200 1200;" xml:space="preserve">
<style type="text/css">
	.st0{fill:#1576D1;}
</style>
<g id="Layer_2_00000072268618490624397600000007810900656841171382_">
	<g id="Layer_1-2">
		<g id="erCiAb.tif">
			<path class="st0" d="M576,0h48c1.8,0.4,3.6,0.6,5.4,0.8c43.6,2,86.6,8.1,128.4,20.3c186.8,54.4,319,170.8,396.5,349.4
				c23.9,55,37.5,112.9,42.9,172.7c1,11.2,1.9,22.5,2.8,33.8v46c-0.2,1.6-0.6,3.2-0.7,4.9c-1.1,13.3-1.8,26.6-3.2,39.8
				c-5.1,48.4-16.4,95.9-33.6,141.4c-46.6,123-124.8,220.8-234.7,293.3c-85.5,56.3-179.8,87.9-281.9,95.7
				c-7.6,0.6-15.2,1.2-22.9,1.8h-46c-2-0.3-3.9-0.7-5.9-0.8c-55.8-2.4-110.9-12.9-163.8-30.9c-114.5-39.3-209-106.8-282.9-202.7
				C51.7,871.2,11.1,764.2,1.8,645.3C1.2,638.2,0.6,631.1,0,624v-48c0.3-2,0.7-3.9,0.8-5.8C3.5,509.7,15.6,450,36.7,393.2
				c42.4-114,112.7-206.9,210.9-278.7C339,48,441.4,10.7,554.2,1.8C561.5,1.2,568.7,0.6,576,0z M787.8,247.6
				c-30.8-1.2-61.2-2.5-91.7-3.5c-18-0.6-36,1.4-53.5,5.9c-41.9,10.9-74.3,34.3-94.7,73c-14.6,27.8-19.8,57.7-19.9,88.8
				c-0.1,28.8,0,57.7,0,86.5v5.9H420.4v128.1h107.7v323.4h128V632H764c5.3-42.8,10.7-85.2,16-128.2H656c0-24.7-0.1-48.9,0-73
				c0-7.7,0.3-15.3,1.1-22.9c2.4-21.9,14.5-35.8,35.8-40.8c7.1-1.7,14.4-2.7,21.7-2.8c22.5-0.4,45-0.2,67.5-0.2h5.6L787.8,247.6z"/>
		</g>
	</g>
</g>
</svg>
