<svg xmlns="http://www.w3.org/2000/svg" viewBox="0 0 1200 1200"><defs><style>.cls-1{fill:#fff;}</style></defs><g id="Layer_2" data-name="Layer 2"><g id="Layer_1-2" data-name="Layer 1"><g id="erCiAb.tif"><path class="cls-1" d="M576,0h48a51.84,51.84,0,0,0,5.37.78C673,2.74,716,8.92,757.81,21.11Q1038,102.68,1154.31,370.5c23.91,55,37.47,112.94,42.9,172.72,1,11.25,1.86,22.52,2.79,33.78v46c-.25,1.62-.61,3.24-.74,4.88-1.07,13.27-1.8,26.58-3.21,39.82a567.3,567.3,0,0,1-33.6,141.41q-69.85,184.57-234.68,293.34c-85.55,56.28-179.77,87.88-281.91,95.73-7.62.58-15.24,1.21-22.86,1.82H577c-2-.26-3.93-.68-5.9-.77a584.06,584.06,0,0,1-163.77-30.94c-114.47-39.33-209-106.83-282.89-202.68C51.71,871.2,11.05,764.18,1.77,645.31,1.22,638.2.59,631.1,0,624V576c.27-2,.7-3.88.8-5.84A584,584,0,0,1,36.66,393.25q63.56-171,210.9-278.67C339,48,441.4,10.68,554.17,1.81,561.45,1.23,568.72.6,576,0ZM787.77,247.62c-30.8-1.21-61.23-2.54-91.67-3.53A188,188,0,0,0,642.63,250c-41.94,10.87-74.28,34.3-94.7,73-14.64,27.76-19.81,57.74-19.91,88.78-.09,28.83,0,57.66,0,86.49v5.88H420.4V632.2H528.14V955.6H656.19V632H764c5.35-42.8,10.65-85.17,16-128.17H656c0-24.71-.08-48.87,0-73a224.83,224.83,0,0,1,1.07-22.94c2.37-21.9,14.47-35.75,35.85-40.77a104.11,104.11,0,0,1,21.73-2.83c22.49-.38,45-.19,67.49-.22h5.58Z"/></g></g></g></svg>