<svg xmlns="http://www.w3.org/2000/svg" viewBox="0 0 209.7 209.71"><defs><style>.cls-1{fill:#fff;}</style></defs><g id="Layer_2" data-name="Layer 2"><g id="Layer_1-2" data-name="Layer 1"><path class="cls-1" d="M209.69,105c0,20.49,0,41,0,61.47-.06,24.76-18.52,43.23-43.29,43.26q-61.47.06-122.94,0C19,209.66.26,191.36.15,166.89q-.3-62,0-123.93C.25,18.8,18.82.25,43,.14q62-.27,123.94,0C191.39.26,209.64,19,209.68,43.48Q209.74,74.22,209.69,105Zm-9.37-.17q0-30,0-60c-.05-21.27-14.16-35.32-35.45-35.33H44.94C23.77,9.5,9.5,23.75,9.49,44.9q0,60,0,119.92c0,21.3,14.05,35.46,35.29,35.48q60.19.07,120.41,0c21,0,35.07-14.07,35.12-35.07Q200.37,135,200.32,104.78Z"/><path class="cls-1" d="M105,190.72c-18.49,0-37,0-55.46,0s-30.3-11.86-30.33-30.29q-.06-45.22,0-90.45c0-7.06.74-7.8,7.69-7.81,9.66,0,19.33.17,29-.12a11.81,11.81,0,0,0,7-2.61c24.82-22.11,59.52-22,84.47.29a10.29,10.29,0,0,0,6.12,2.33c10.15.24,20.32.08,30.48.12,5.71,0,6.77,1,6.78,6.72,0,31,.13,62,0,93-.09,16.88-12.19,28.72-29.22,28.84C142.63,190.82,123.81,190.71,105,190.72ZM157.57,71.77c18,32,7.18,62.24-10.35,78.46-19.7,18.23-49,22-71.85,9.13C60,150.7,49.7,137.9,45.09,120.79S43.52,87.31,52.29,72H28.77c-.07,1.75-.18,3.07-.18,4.39q0,42,0,84c0,13.26,7.87,20.94,21.27,21q55,0,110,0c13.75,0,21.44-7.61,21.45-21.23q0-41.73,0-83.46c0-1.59-.15-3.17-.24-4.81Zm-.24,33.09A52.44,52.44,0,1,0,105,157.33,52.4,52.4,0,0,0,157.33,104.86Z"/><path class="cls-1" d="M174.17,52.45c-14.8,1-17.63-3.42-16.85-16.8.13-2.32-.09-4.67,0-7A9.54,9.54,0,0,1,167,19.23q7-.21,14,0c5.93.15,9.48,3.73,9.69,9.75.15,4.16.09,8.33,0,12.49-.1,7.5-3.55,10.92-11,11C177.84,52.47,176,52.45,174.17,52.45Zm6.75-9.67V29H167.37v13.8Z"/><path class="cls-1" d="M147.83,105.05a42.84,42.84,0,1,1-43-42.86C128.2,62,147.79,81.47,147.83,105.05Zm-9.48-.23a33.4,33.4,0,1,0-33.64,33.52A33.43,33.43,0,0,0,138.35,104.82Z"/></g></g></svg>