<?xml version="1.0" encoding="UTF-8"?><svg id="Layer_2" xmlns="http://www.w3.org/2000/svg" viewBox="0 0 799.87 1149.63"><defs><style>.cls-1{fill:#1576d1;}</style></defs><g id="Layer_1-2"><path class="cls-1" d="M399.26,1149.63c-58.24-91.46-116.31-181.05-172.72-271.68-60.06-96.5-120.91-192.63-177.24-291.31C-86.78,348.21,73.85,35.32,347.26,3.1c253.66-29.89,462.86,159.75,452.22,415.59-2.24,53.85-16.06,113.16-43.09,159.01-111.4,188.95-229.94,373.69-345.96,559.9-2.28,3.65-5.93,6.45-11.17,12.02Zm2.44-927.1c-97.56-.25-176.19,77.47-176.96,174.91-.77,98.21,79.95,179.33,177.59,178.45,96.82-.88,175.4-80.41,175.25-177.36-.15-97.38-78.47-175.74-175.88-175.99Z"/></g></svg>