<?xml version="1.0" encoding="UTF-8"?>
<svg id="Layer_2" data-name="Layer 2" xmlns="http://www.w3.org/2000/svg" viewBox="0 0 274.22 273">
  <defs>
    <style>
      .cls-1 {
        fill: #3274bb;
      }
    </style>
  </defs>
  <g id="Layer_1-2" data-name="Layer 1">
    <g>
      <path class="cls-1" d="m30.14,185.9c45.4-45.36,91.33-91.25,137.23-137.16,1.81-1.81,3.06-2.92,5.48-.47,17.36,17.54,34.87,34.95,52.32,52.4.19.19.26.48.21.37-46.88,46.86-93.66,93.63-140.17,140.13-17.97-18.03-36.44-36.57-55.07-55.27Z"/>
      <path class="cls-1" d="m184.72,31.07c9.33-8.91,18.03-17.93,27.49-26.06,8.27-7.12,21.27-6.46,29.2.76,10.02,9.13,19.39,18.99,28.87,28.7,5.72,5.85,4.99,18.16-.79,23.7-8.87,8.49-17.45,17.27-26.05,26.03-1.97,2.01-3.24,2.48-5.5.19-17.47-17.65-35.07-35.17-53.22-53.32Z"/>
      <path class="cls-1" d="m70.06,257.76c-9.78,2.39-18.64,4.56-27.51,6.73-11.42,2.79-22.8,5.74-34.28,8.28-5.9,1.3-9.4-2.95-7.94-9.41,3.25-14.4,6.72-28.76,10.01-43.15,1.08-4.73,1.85-9.53,2.85-14.28.18-.86.7-2.07,1.34-2.29.68-.23,1.92.3,2.52.9,6.37,6.28,12.66,12.64,18.98,18.97,6.26,6.26,12.54,12.49,18.78,18.77,5,5.04,9.96,10.12,15.23,15.49Z"/>
    </g>
  </g>
</svg>