<svg xmlns="http://www.w3.org/2000/svg" viewBox="0 0 153.11 126.85"><defs><style>.cls-1{fill:#fff;}</style></defs><g id="Layer_2" data-name="Layer 2"><g id="Layer_1-2" data-name="Layer 1"><path d="M0,113.25c23,13.91,47.4,17.07,73,9.85,38-10.7,64.34-46.36,64.83-87.44A8,8,0,0,1,141,29c4.31-3.78,8.13-8.12,12.15-12.23l-.65-.79-14.91,4L149.63,4.15A81.66,81.66,0,0,0,133.49,9c-3,1.18-5,.55-7.55-1.58A31.61,31.61,0,0,0,75.23,22.74c-1.48,5.08-1.38,10.61-2.06,16.38C47.28,37.35,25.92,26,8.46,5.84.7,22.26,4,36,16.14,48.56L4.05,45.2c.69,16,9.28,25.69,23.19,31.82H15.51c1.87,6.69,5.38,12,10.82,15.38s11.33,5.35,17,7.94C30.84,109.61,16.1,113.41,0,113.25Z"/><path class="cls-1" d="M0,113.25c16.1.16,30.84-3.64,43.33-12.91-5.67-2.59-11.7-4.67-17-7.94S17.38,83.71,15.51,77H27.24C13.33,70.89,4.74,61.17,4.05,45.2l12.09,3.36C4,36,.7,22.26,8.46,5.84,25.92,26,47.28,37.35,73.17,39.12c.68-5.77.58-11.3,2.06-16.38A31.61,31.61,0,0,1,125.94,7.45c2.53,2.13,4.59,2.76,7.55,1.58a81.66,81.66,0,0,1,16.14-4.88L137.55,19.93l14.91-4,.65.79c-4,4.11-7.84,8.45-12.15,12.23a8,8,0,0,0-3.13,6.71C137.34,76.74,111,112.4,73,123.1,47.4,130.32,23,127.16,0,113.25Z"/></g></g></svg>