<?xml version="1.0" encoding="utf-8"?>
<!-- Generator: Adobe Illustrator 26.2.1, SVG Export Plug-In . SVG Version: 6.00 Build 0)  -->
<svg version="1.1" id="Layer_1" xmlns="http://www.w3.org/2000/svg" xmlns:xlink="http://www.w3.org/1999/xlink" x="0px" y="0px"
	 viewBox="0 0 392.5 400.6" style="enable-background:new 0 0 392.5 400.6;" xml:space="preserve">
<style type="text/css">
	.st0{fill:#0160A8;}
	.st1{fill:#186595;}
</style>
<g id="a">
</g>
<g>
	<g>
		<path class="st0" d="M177.2,382.8c0,0-0.2,0.1-0.2,0.1c-3.9-0.1-7.1,1.5-9.8,4.2c0,0,0,0,0,0c-3.8,0.5-7.7-0.2-11.3,1.7
			c-1.1,0.1-2.2,0.2-3.2-0.3c-4.6-1.7-9.2-3.1-14.2-2.4c-0.2,0-0.5,0.1-0.7,0.1c-5.3-2-10.5-1-15.4,1c-4.1,1.7-8,3.9-12.6,4.1
			c-2.9,0.1-5.7,0.7-8.4,1.4c-0.4,0-0.8-0.1-1.3-0.1c-0.6-0.6-1.1-1.7-1.7-1.7c-4.6,0.3-9-0.4-13.5-1.1c-6.1-0.9-12.2,0.1-18.1,1.6
			c-1.2,0.3-3.8-0.4-4.3,2.1c0,0,0,0,0,0c-1.7,0.1-3.4-0.5-4.9,0.3c-5,2.6-10.2,3-15.6,2.1c-2.8-0.4-4.7-2.4-4.5-5.3
			c0.3-4.9,1.1-9.7,1.1-14.5c0-10.3,0.7-20.6-1.1-30.8c-0.6-3.4-1.4-4.9-4.8-5c-1.9-0.1-3.9,0.4-5.8,0.7c-0.6,0.1-0.5,0.8-0.4,1.3
			c0,0-0.1,0-0.1,0c-0.5-0.1-1.1-0.3-1.5-0.1c-4.8,2.3-9.6,2.4-14.5,0c-0.3-0.2-0.8,0-1.2-0.1c0,0,0,0,0,0c0.4-1.6-1-2.1-1.9-2.9
			c-3-2.7-5-5.9-5-10.2c0-3.4,0.7-6.8-0.4-10.2c0.1-0.4,0.2-0.8,0.3-1.3c1.1-1,2.1-2.4,2-3.6c-0.3-3.5,1.4-6.6,1.6-9.9
			c0.2-3.4,2.6-6.6,1.2-10.2c0.1-0.4,0.2-0.8,0.2-1.3c2.4-1.9,2.7-4.5,1.1-7.5c0-0.4,0.1-0.8,0.1-1.2c1.4-0.5,1-1.7,1-2.6
			c0-3.6,0-7.3,0-10.9c0-1.2-0.2-2.5,0.7-3.3c2.2-1.9,1.8-4.6,2.3-6.9c1.6-7.4,1.2-15,2.1-22.6c0,0,0,0,0,0c1.6-0.2,1.9-1.2,1.8-2.6
			c0,0,0,0,0,0c0.2-0.2,0.4-0.5,0.6-0.7c0-0.2,0-0.4,0.1-0.6c1.2-2.4,0.3-4.9,0.5-7.3c0.1-1.1-0.2-2.5,0.2-3.4
			c2.1-4.1,2.2-8.8,3.3-13.1c1.7-6.5,2.2-13.4,1.3-20.1c-0.6-4.3-0.2-8.6-1.2-12.8c-2.2-9.3-3.7-18.8-4.2-28.4
			c-0.3-5.1,0.8-10,1.6-15.1c1-5.9,1.2-12.2-1.2-18.2c-0.9-2.2-0.5-5.1-1.5-7.2c-3.1-6.2-4-12.4-2.3-19.3c0.9-3.7,2.1-8.3-1.8-11.7
			c0,0,0-0.2,0-0.2c0.4-2.2-0.4-4.4-0.1-6.7c0.3-3.4,2.2-6.4,5.7-6.2c6,0.3,11.9-1.6,17.9-0.4c1,0.2,1.8-0.2,2.3-1.1
			c0.4-0.1,0.9-0.2,1.3-0.3c1.3,0.6,2.6,1.3,3.1-0.9c0,0,0,0,0,0c3-0.7,3-3.6,3.8-5.6c1.2-2.9,1.4-6.3,2.5-9.2
			c2.4-6.2,4.4-12.4,4.4-19.1c0-4.1,0.7-8,1.1-12c0.3-3.9,2.9-6.8,3.3-10.5c0.2-0.2,0.4-0.4,0.6-0.6c1.9-0.1,3.6-0.6,4.3-2.7
			c0,0,0,0,0,0c2.7,0.7,5.3-0.3,8-0.5c5-0.3,10,0.2,14.9,0.8c7,0.8,14,1.2,20.8,3.2c3.7,1,7.4,2,11.3,1.7l0.1-0.1
			c0,0,0.1,0.1,0.1,0.1c1.6,2.5,3.6,3.5,6.3,1.4c0.4,0.2,0.8,0.3,1.3,0.5c0.5,0.9,1.4,0.6,2.1,0.6c0.1-0.1,0.3-0.1,0.3,0.1
			c3.2,3.9,7.9,2.2,11.9,3.1c0,0,0,0,0,0c1.1,1.4,2.5,1.4,4.1,1.1c10.9,2.6,21.9,5.2,32.8,7.9c12.4,3,24.7,5.9,36.8,10.1
			c0.9,0.3,1.7,0.5,2.6-0.1c5.4-3.6,11.6-4,17.8-3.9c8.7,0.3,16.8-1,24.2-5.8c4.1-2.6,8.8-2.5,13.3-1.5c6,1.3,11.8,1,17.3-1.8
			c6.2-3.1,13.1-3.2,19.8-3.9c3.7-0.4,7.1-1.6,10.4-3.2c3.2-1.5,6.5-2.8,10.2-2.7c3,0.1,4.2,1.6,4.4,4.5c0.1,2.6-0.7,4.9-1.6,7.3
			c-1.4,3.7-1.1,7.3,1.1,10.4c4.1,5.9,4.7,12.3,3.5,19.1c-0.1,0.7-0.3,1.4-0.3,2.2c-0.5,6.8,1.8,10.2,8.3,12.3
			c5,1.6,10.2,2,15.3,3.1c10.8,2.3,15.5,9.3,13.7,20.1c-1.2,6.8-1.8,13.5-1.2,20.5c0.6,7.4-0.1,14.9-0.7,22.4
			c-0.5,6.5-0.6,13.2-1.1,19.7c-0.7,9.2-1.6,18.3-5.3,26.9c-0.9,2.1-1.8,4.2-3.4,5.9c-0.7,0.2-1.1,0.6-1.2,1.4c0,0,0.1-0.1,0.1-0.1
			c-0.7,0.1-0.8,0.5-0.8,1.1c-0.2,0.2-0.4,0.4-0.6,0.7c-0.2,0-0.4,0-0.6,0c-0.1,0-0.2-0.1-0.3-0.1c0.1,0.1,0.2,0.1,0.2,0.2
			c0,0.2,0,0.4,0,0.6c-0.2,0.2-0.4,0.4-0.6,0.6c-2-0.4-1.6,1.2-1.8,2.2c-0.5,3.1,0.6,5.8,2.1,8.4c0.6,1.1-0.1,3.5,2.6,3c0,0,0,0,0,0
			c-0.1,0.4,0.1,0.7,0.4,0.9c0,0,0.1,0.2,0.1,0.2c-0.1,1.3-0.7,3.1,0.3,3.9c3.4,3,2.9,7,2.7,10.7c-0.3,6.4,0.1,12.6,3.7,18.3
			c2,3.2,3.7,6.8,2.4,10.6c-1.6,4.8-1.4,9.6-0.4,14.4c0.5,2.6,1,5.6,3.8,7c0,0,0-0.1,0-0.1c0.7,3.5,1.5,7.1,2.3,10.6
			c0,0.1,0.4,0.2,0.5,0.2c0,0.4,0.1,0.8,0.1,1.2c-0.8,0.9-0.5,2-0.5,3c-0.3,6.4,1.2,12.5,2.9,18.6c1,3.6,1.4,7.4,4.1,10.3l0.1,0.1
			c0,0-0.1,0.2-0.1,0.2c0,1.4-0.3,2.8,0.1,4c2.2,6.5,2.2,13.2,2.4,20c0,1.1-0.1,2.3,0.4,3.4c2.4,5.7,3.1,11.8,4.4,17.7
			c0.7,3,1.4,6.9-2,8.9c-2.3,1.4-4.7,2.8-7.7,2.8c-9.7,0-19.3-1.1-29-0.7c-2.1,0.1-4.1,0-5.7,1.6l-0.2,0.1c0,0-0.3-0.1-0.3-0.1
			c-0.4-1.2-1.4-1-2.3-1c-3.3-0.1-6.7,0.5-9.7,1.4c-5.3,1.5-10.8,1.7-16.1,2.9c-2.4,0.5-4.7,1.6-7.3,1.4c-3.7-0.3-7.3,0.7-10.7,1.5
			c-6,1.5-12.3,0.5-18.2,2.1c-2.2,0.6-4.8,0.1-7.2,0.1c-1,0-2.2-0.3-2.3,1.4c0,0,0-0.1,0-0.1c-0.4,0.3-1,0.5-1.1,0.9
			c-1.2,4.3-2,8.8-4.5,12.6c-0.2,0.4-0.1,1-0.1,1.5c0,0,0,0,0,0c-0.8-0.1-1.4,0.3-1.9,0.8c-3.8,3-7.7,5.6-12.9,5.4
			c-3.5-0.2-6.6-1.7-9.8-2.6c-4.2-1.2-8.4-2.7-12.7-3.9c-5.2-1.4-10.4-2.4-15.6-3.2c-3.4-0.5-6.5-2-10-2.1c0,0,0.1,0,0.1,0
			c-0.3-1.7-1.5-2.2-3.1-2c-0.2-0.2-0.4-0.4-0.6-0.5c0.1-0.8,0.1-1.7-0.7-2.3c-2.7-1.7-5.3-3.7-8.7-3.5c-2.7,0.2-5.4-0.4-8.2,1
			C179.5,381.2,177.4,380.3,177.2,382.8z M63.2,10.5c-0.2,0.2-0.4,0.5-0.6,0.7l0,0c-2.3,0.1-2.1,2-2.5,3.4
			c-1.5,5.5-1.5,11.1-1.4,16.7c0,2.7-0.2,5.3-0.9,8c-0.7,2.6-1.9,5.3-1.6,8.2l0,0c-1.9,1-1.9,2.7-1.7,4.6l0,0
			c-2.9,3.8-4.8,8-5.1,12.8L49.4,65c-0.4,0.1-0.6,0.3-0.1,0.6c-0.2,0.4-0.3,0.9-0.5,1.3c-0.6,0.3-0.7,0.8-0.5,1.4l0,0
			c-1.2,0.4-1.2,1.5-1.5,2.5c-1.2,4.8-2.2,9.7-1.9,14.7c0.1,1.1,0,2.2-0.3,3.4c-1.1,3.6-1.7,7.4-2.3,11.1c-0.7,4.2-0.4,8.6-2.2,12.7
			c-0.4,0.9-0.9,2.5,0.9,3.1c-0.1,0.4-0.2,0.8-0.3,1.2c-3,2.7-2.6,6.3-2.6,9.8l0,0.2c-1.4,0.5-1.3,1.7-1.4,2.9
			c-0.2,2.7,0.4,5.4,0.7,8.1c0.3,3.8-1,7.3-1.8,10.9c-1.8,8.2-1.7,16.6-0.7,25c0.3,2.3-0.2,4.6-1.4,6.3c-1.6,2.2-1.6,4.4-1.6,6.8
			l0.1,0.2l-0.1,0.1c-1.8,0.5-1.8,1.8-1.8,3.3c0,3.1,1.2,5.9,1.5,8.8l0,0.1c-2.8-0.2-1.2,1.8-1.5,2.9l0,0c-1.5,0.4-1.7,1.7-2,2.9
			c-1.2,4.8-2.8,9.5-3.5,14.4c-0.5,3.2,0.6,6.5-0.1,9.8c0,0.1,0.5,0.3,0.8,0.5c-0.1,0.4-0.1,0.8-0.2,1.3c-0.7,1.9-1.3,4-2.3,5.8
			c-0.9,1.5-1.2,3-0.9,4.7c0,0.1,0.1,0.2,0.1,0.3c-0.1,0.2-0.2,0.4-0.3,0.5c-1.8,0.4-1.8,2-1.8,3.2c-0.1,7,0,14-2.4,20.8
			c-2.2,6.3-1.4,13.2-1.4,19.8c0,1.3-0.5,2.6-0.8,3.9c-0.8,3.4-2.8,6.8-1.3,10.5c-0.1,0.4-0.2,0.9-0.3,1.3c-1,0.5-2.2,0.7-1.8,2.4
			c1.2,5-1,9.8-2.1,14.5c-1.2,5.4-1.4,10.3,0.6,15.3c0.5,1.3,5.2,2.9,6.6,2.6c6.3-1.5,12.4-3.8,19-3.4c0,0,0,0,0,0
			c0.2,0.4,0.2,0.9,0.5,1c5.1,2.1,9.2,5.8,14,8.3c1.9,1,4.1,1.7,5.5,2.9c3.2,2.8,7.1,2.8,10.7,4c4.8,1.7,9.7,3.2,14.6,4.8
			c4.8,1.5,9.2,4.2,14.5,3.9l0.2-0.1l0.2,0.1c0.4,1,0.9,1.7,2.1,2c4.2,0.9,8.3,2.2,12.6,3.1c5.4,1.1,10.2,3.9,15.9,4.3
			c4.4,0.3,8.7,2.2,13.1,3.3c5.6,1.4,11.4,2.3,17.1,3c2.9,0.3,5.7,2.6,8.8,0.8c0.2,0,0.4,0,0.6,0c2.7,1.1,5.4,0.7,8.2,0.1
			c5.5-1.1,5.8-1.5,4.6-7.2c-0.5-2.3-0.3-4.4,1-6.6c1.4-2.4,3.8-5.3,3.8-7.4c0-4.8,1.3-9.5,0.7-14.2c-0.3-2.1,0.3-5-2-6.8l0,0
			c0-4.7-1.6-6.3-7-6.8l0,0c0-1-0.4-1.5-1.4-1l-0.1-0.1c0.6-1.7-0.6-1.5-1.6-1.5l0,0c-0.4-2.1-1.5-3.3-3.7-3.2l0,0
			c0-1.4-1.3-1.9-2.2-2.3c-2.8-1.2-5.7-2.4-8.6-3.1c-2-0.5-4-1.3-5.1-2.6c-1.9-2.2-4.5-2.5-6.7-3.9c0,0,0,0,0,0
			c-0.2-0.2-0.4-0.5-0.7-0.7l0,0c-1-4.3-3.6-7.6-6.6-10.6c-0.2-0.2-0.6-0.1-0.9-0.1l0,0c0.1-0.8-0.4-1.6-0.4-2.4
			c-0.2-3.2-4-4.7-3.8-8c-2.2-0.3-1.5-4-4.2-3.8l0,0c0.1-0.4-0.1-0.7-0.5-0.8l0,0c0.1-1,0.1-1.9-1.3-1.9l0,0c0-0.6-0.1-1.1-0.9-1.1
			c0.1,0,0.1-0.1,0.2-0.1c-0.1,0-0.1,0.1-0.2,0.1c0.3-1-0.1-1.4-1.1-1.4l0,0c-0.2-2.3-1.7-4.4-1.3-6.8c0.1-0.5-0.6-0.7-1.2-0.8l0,0
			c0.1-0.6,0-1.1-0.6-1.3l0,0c0-0.6-0.1-1.1-0.7-1.3c-2.9-3.6-4.9-7.5-4.3-12.3c0.2-1.8-0.2-3.6-1.1-5.1c-5.2-8.4-7.4-17.9-9.7-27.3
			c-2-8.3-4-16.7-2.2-25.3c0.9-4.6,3.1-8.9,4.2-13.4c1.9-7.2,1.6-14.7,1.9-22.1c0.5-9.4,3.3-17.8,10-24.6
			c8.1-8.3,16.3-16.5,24.4-24.7c6.3-6.4,13.9-10.4,22.5-13c6.1-1.9,12.3-3.3,18.6-4.3c12.1-1.9,24.2-2.8,36.4-1
			c10.1,1.5,19.8,4.8,29.7,7.2c8.6,2.1,17.4,3.5,25.7,6.7c5,1.9,8.8,5,10.9,10.1c1.6,4.1,3.4,8.1,6.3,11.4
			c7.1,8,11.1,17.5,14.4,27.5c2.3,6.9,4.5,13.9,10,19.2c0.6,2.2,2.6,1.4,4,2c3,1.2,6.3,1.4,9.3,2.4c3.2,1.1,6.7,2.9,10.4,1.5
			c0.4,0,0.9,0,1.3,0c2.4,0.7,4.6,1.1,6.2-1.5l0,0c0.6,0,1.1-0.1,1.2-0.8l-0.1,0.1c0.4,0,0.7-0.2,0.7-0.7l0,0
			c1.5,0.2,1.5-0.8,1.4-1.7l0,0c1.3,0,1.6-0.9,2.1-2c3.1-7.3,4.6-15,5-22.8c0.9-15.9,2.3-31.7,1.7-47.7c-0.2-4.4,0-8.7,1.1-13
			c0.3-1.3,0.6-2.9-0.4-4.2c0.1-0.6,0.3-1.3,0.4-1.9c2.4-4.7-0.1-9.7-5.1-10c-1.2-0.1-2.2-0.5-3.3-0.7c-2.6-0.5-5-1.9-7.8-1.8l0,0
			c-2.1-2.5-5.2-1.9-7.9-2.6c-4.8-1.2-9.9-0.8-14.4-3c-4.5-2.2-8.9-4.6-13.6-6.4c-1.2-0.5-2.3-0.9-3.5-0.1c-0.4-0.1-0.9-0.3-1.3-0.4
			c-0.3-0.7-1-0.7-1.6-0.7c-5,0-9.9,0.2-14.8-0.6c-0.8-0.1-1.7-0.2-2.3,0.5c-0.7,0.1-1.3-0.1-1.9-0.5c-4.5-2.8-9.5-3.3-14.6-3.7
			c-0.2,0.1-0.3,0.1-0.4-0.1c-2.2-2.1-5-2.3-7.9-2.4l-0.2,0.1l-0.1-0.1c-5.2-2.7-10.8-4-16.7-4.3c-0.3,0-0.6-0.1-0.9-0.1
			c-1.2-1.5-2.8-1.4-4.5-1.2l0.1,0c-0.3-0.9-1.2-0.8-1.8-1.1c-4-1.5-8.1-2.4-12.2-3.5c-3-0.9-5.8-2.3-8.9-3
			c-10.6-2.3-20.7-6.7-31.3-8.8c-4.7-0.9-9.2-2.7-13.7-3.6c-8.7-1.8-17.3-4.3-25.9-6.6c-1.3-0.3-2.5-1.1-3.9-0.1
			c-0.4-0.1-0.9-0.3-1.3-0.4c-0.3-0.4-0.6-1-1-1.1c-4.8-1.3-9.5-3.1-14.6-3.4l0,0c-0.1-0.9-0.8-1-1.5-1.3c-4.7-1.7-9.7-2.1-14.5-3.5
			C103,9.4,94.4,9,86.1,7.5c-5.8-1-11.8-0.2-17.8-0.2c-1.1,0-2,0.4-2.7,1.3l-0.2,0.1c-0.5,0-0.8,0.2-1,0.6c-0.2,0.2-0.4,0.3-0.6,0.5
			C63.6,10.1,63.4,10.3,63.2,10.5C63.1,10.5,63.2,10.5,63.2,10.5z M310,195.3L310,195.3c-0.8,0-1.2,0.5-1.2,1.3l0,0
			c-0.2,0.2-0.4,0.4-0.6,0.7l0,0c-1,0.1-1.4,0.5-1,1.5l0,0c-3.7,0-1.7,2.6-2,4.2l0-0.1c-2.2,3.1-3.1,6.5-1.9,10.3
			c0.7,2.2,1.6,4.2,1.8,6.6c0.1,0.9,0.6,1.8,1.8,1.8l0,0c0,1.6-0.3,3.3,1.9,3.8l0,0c0.1,3.1,1.9,5.2,5,5.7l0,0
			c0.9,2.7,2.8,3.7,5.6,3.2l0,0c0.3,0.6,0.7,0.7,1.3,0.6l0,0c1.1,3.6,4.1,2.3,6.5,2.5l0.2,0l0.2,0.1c0.4,0.6,0.9,0.6,1.5,0.5l0.2,0
			l0.2,0.1c2.1,3,5.3,2.1,7.9,1.7c1.6-0.3,4.2,0.7,5.1-1.8l-0.1,0.1c0.3-0.2,0.5-0.3,0.8-0.5c8.5-7.1,9.7-16.5,8.4-26.7
			c-0.8-6.1-3.4-11.3-8.4-15.2c-1.9-1.5-3.8-3-5.1-5c-2-2.7-4.5-1.3-6.8-0.9c-2.3,0-4.6,0-6.9,0c-1.7-0.9-3.7-0.9-5.1-0.2
			c-1.7,0.9-4.5,0-4.9,2.9l-0.1,0.1l-0.2,0c-1.4-0.1-3-0.5-2.8,1.8c-0.2,0.2-0.4,0.4-0.6,0.5C310.5,194.9,310.3,195.1,310,195.3z
			 M284.4,258.1c-0.6-0.1-1,0.1-1.3,0.6l0,0c-1.1,0-2.2,0-3.4,0.4c-5.3,1.7-10.1,4.6-15.5,6c-6.2,1.6-12.3,2.6-18.6,1
			c-1.9-0.5-3.7-1.4-5.7-1.1c-3.6,0.4-6.9,2-10.7,1.9c-9.7-0.3-18.8-3.4-28.1-5.6c-5.9-1.4-11.3-3.7-14.8-9.1
			c-0.3-0.5-0.8-0.8-1.5-1c-5.8-1.3-11.4-3.4-17.3-4.2c-5.2-0.7-10.5-0.8-14.6,3.5c-1.1,1.1-1.8,2.3-1.4,3.9
			c1.5,8.4,3.7,16.7,9.4,23.2c8.1,9.2,18.2,15.2,31.1,14.5c1.9-0.1,3.8-0.2,5.6,0c8.9,1.4,10,2.9,10.3,10.7c0.3,7.8-1.7,15.3-4,22.7
			c-2.6,8.3-4.8,16.6-3.9,25.4c0.4,4.5-0.1,8.9-1.1,13.4c-1.9,8.5,0,12,7.9,15.5c5.4,2.3,11.1,3.6,16.7,5.1c7.6,2,15.1,4.9,23,5.8
			c11.1,1.2,16.1-5.5,14.1-14.3c-0.4-1.8-0.1-3.4,1-5c2.7-3.6,4.1-7.7,3.8-12.3c-0.2-3.4,0.5-6.6,1.2-9.9
			c2.9-12.3,8.1-23.8,12.2-35.7c1.3-3.6,3-7.1,4.8-10.5c0.8-1.5,1.7-2.4,3.6-2.3c4.2,0.2,8.3-0.9,12-2.8c5.2-2.7,10.6-4.9,16.5-5.6
			c1-0.1,2.4-0.2,2.7-1.2c1-2.8,3.6-3.6,5.8-4.9c3.8-2.2,6.1-5.7,5.4-9.8c-1.2-6.8,0.7-12.8,3.5-18.7c0.6-1.2,0.8-2.1-0.1-3.1
			c0-0.6,0.1-1.3-0.7-1.5l0,0.1c-0.1-3.5-2.8-3.9-5.4-4.3l-0.2-0.1c-1.6-1.7-3.4-2.5-5.6-1.4c-0.9,0.1-1.9,0.1-2.7-0.4
			c-0.7-0.1-1.4-0.4-2.1-0.3c-3.4,0.4-7.3-0.2-9.5,3.5l0,0c-3.8-0.9-6.2,1.8-8.9,3.7l-0.1,0.1l-0.2-0.1c-3.2-0.1-6.2,1.2-9.3,1.8
			c-0.7,0.1-1,0.6-1,1.3c-0.4,0.2-0.8,0.4-1.3,0.5C285.1,256.4,284.6,256.7,284.4,258.1L284.4,258.1z M258.7,254.3
			c5.3,0,6.6-0.8,8.3-4.8c1.3-3.1,2.5-6.1,5-8.5c4.7-4.3,5-7.2,1.5-12.6c-2-3-2.9-6.2-2.8-9.7c0-1.8,0.1-3.6,0-5.3
			c-0.4-7.8-8.2-15.5-16-15.1c-11.5,0.6-21.2,5.6-29.2,13.8c-1.3,1.3-1.8,2.9-1.9,4.8c-0.2,4.6,0,9.4-4.2,12.9
			c-1,0.8-1.2,2.4-1.3,3.8c-0.3,3.6,1,6.6,3.3,9.2c4.9,5.7,11.1,9.1,18.4,10.3C246.3,254.1,253.4,250.9,258.7,254.3z"/>
		<path class="st1" d="M11.6,76.9c3.9,3.4,2.7,8,1.8,11.7c-1.7,6.9-0.8,13.1,2.3,19.3c1.1,2.1,0.6,5,1.5,7.2
			c2.4,6,2.2,12.2,1.2,18.2c-0.8,5-1.9,10-1.6,15.1c0.5,9.6,2,19.1,4.2,28.4c1,4.2,0.6,8.5,1.2,12.8c0.9,6.7,0.4,13.6-1.3,20.1
			c-1.1,4.3-1.2,9-3.3,13.1c-0.5,0.9-0.1,2.3-0.2,3.4c-0.3,2.4,0.6,5-0.5,7.3c-1.2-6.7,0-13.1,1.9-19.4c3.6-12.2,2.7-24.3,0.9-36.6
			c-1.6-10.8-4-21.5-4.1-32.6c0-4,1.4-7.8,1.9-11.7c1-8.2-0.1-16.3-2.9-24c-2.7-7.2-4.4-14.3-2.2-21.9
			C13.2,83.9,12.2,80.3,11.6,76.9z"/>
		<path class="st1" d="M345,368.7c1.6-1.6,3.7-1.5,5.7-1.6c9.7-0.4,19.3,0.7,29,0.7c3,0,5.4-1.4,7.7-2.8c3.3-2,2.6-5.9,2-8.9
			c-1.3-5.9-2.1-12-4.4-17.7c-0.5-1.1-0.3-2.2-0.4-3.4c-0.2-6.7-0.2-13.5-2.4-20c-0.4-1.2-0.1-2.7-0.1-4c1.8,4.1,2.7,8.4,2.8,12.7
			c0.3,10.1,2.4,19.8,4.8,29.5c2.8,11.1-0.3,15-11.7,15.6c-3.1,0.2-6.2-0.1-9.4-0.3C360.8,367.8,352.9,368,345,368.7z"/>
		<path class="st1" d="M26.4,342.3c-0.1-0.5-0.2-1.2,0.4-1.3c1.9-0.3,3.9-0.8,5.8-0.7c3.4,0.2,4.2,1.6,4.8,5
			c1.8,10.2,1.2,20.5,1.1,30.8c0,4.9-0.9,9.7-1.1,14.5c-0.2,2.9,1.7,4.8,4.5,5.3c5.4,0.8,10.7,0.5,15.6-2.1c1.5-0.8,3.3-0.3,4.9-0.3
			c-7.3,3.1-14.6,5.9-22.8,2.9c-2.7-1-3.7-2.5-3.4-5.6c1.3-14.6,1.6-29.2,0.4-43.9c-0.4-4.7-2-6.1-6.7-5.5
			C28.8,341.6,27.6,342,26.4,342.3z"/>
		<path class="st1" d="M270.6,378.5c0-1.7,1.3-1.3,2.3-1.4c2.4,0,4.9,0.5,7.2-0.1c6-1.7,12.2-0.6,18.2-2.1c3.4-0.8,7.1-1.8,10.7-1.5
			c2.6,0.2,4.9-0.9,7.3-1.4c5.3-1.2,10.8-1.4,16.1-2.9c3-0.8,6.4-1.5,9.7-1.4c0.9,0,1.9-0.2,2.3,1c-17.5,2.7-34.9,5.5-52.4,8.1
			C285,377.9,277.8,378.3,270.6,378.5z"/>
		<path class="st1" d="M372.9,266.7c-2.9-1.5-3.3-4.4-3.8-7c-1-4.8-1.2-9.5,0.4-14.4c1.3-3.8-0.4-7.4-2.4-10.6
			c-3.7-5.7-4-11.8-3.7-18.3c0.2-3.8,0.8-7.7-2.7-10.7c-1-0.9-0.4-2.6-0.3-3.9c3.3,4.7,4.9,9.9,4.4,15.6c-0.6,6.7,0.3,13,4.2,18.7
			c1.8,2.7,2.5,5.9,1.5,9.3C368.2,252.9,369,260,372.9,266.7z"/>
		<path class="st1" d="M202.1,387.8c3.4,0.1,6.6,1.6,10,2.1c5.2,0.8,10.5,1.8,15.6,3.2c4.3,1.2,8.4,2.6,12.7,3.9
			c3.2,1,6.3,2.5,9.8,2.6c5.2,0.2,9.1-2.4,12.9-5.4c0.6-0.5,1.1-0.9,1.9-0.8c-4,5.9-10.7,8.3-18.4,6.5c-8-1.9-15.5-5.4-23.6-6.9
			c-4.9-0.9-9.8-1.8-14.7-2.9C206.2,389.7,203.9,389.4,202.1,387.8z"/>
		<path class="st1" d="M56.8,4.8c-0.5,3.7-3,6.6-3.3,10.5c-0.3,4-1.1,8-1.1,12c0.1,6.7-1.9,12.9-4.4,19.1c-1.2,2.9-1.3,6.3-2.5,9.2
			c-0.8,2-0.9,4.9-3.8,5.6C47.1,48,52,34.7,51.9,20.1C51.9,14.6,52.5,9,56.8,4.8z"/>
		<path class="st1" d="M116.7,6.6c-3.9,0.3-7.6-0.6-11.3-1.7c-6.8-2-13.8-2.4-20.8-3.2C79.7,1.2,74.7,0.7,69.7,1
			c-2.7,0.2-5.3,1.2-8,0.5c3-2,6.5-1.4,9.7-1.4c15.1,0.1,29.9,2.6,44.5,6C116.2,6.2,116.5,6.4,116.7,6.6z"/>
		<path class="st1" d="M14.3,237.4c-0.9,7.5-0.4,15.2-2.1,22.6c-0.5,2.3-0.1,5-2.3,6.9c-0.9,0.7-0.7,2.1-0.7,3.3c0,3.6,0,7.3,0,10.9
			c0,1,0.5,2.2-1,2.6c-0.4-8.2-0.3-16.3,3-24.2c1.6-3.9,1-8.6,1-13C12.3,243.4,12.3,240.2,14.3,237.4z"/>
		<path class="st1" d="M37.4,62.3c-0.5,1-1.3,1.3-2.3,1.1c-6-1.2-11.9,0.6-17.9,0.4c-3.5-0.2-5.4,2.8-5.7,6.2
			c-0.2,2.3,0.5,4.5,0.1,6.7c-0.3-0.5-0.6-1.1-0.8-1.6c-2.7-8.2-0.1-12.2,8.5-12.6C25.3,62.2,31.4,62.4,37.4,62.3z"/>
		<path class="st1" d="M62.5,393.4c0.5-2.5,3.1-1.7,4.3-2.1c5.9-1.6,12-2.5,18.1-1.6c4.5,0.7,8.9,1.4,13.5,1.1
			c0.5,0,1.1,1.1,1.7,1.7c-5.2-0.5-10.3-1-15.5-1.5c-6.4-0.5-12.6-0.3-18.8,1.7C64.8,393.2,63.7,393.6,62.5,393.4z"/>
		<path class="st1" d="M101.3,392.6c2.8-0.7,5.5-1.2,8.4-1.4c4.5-0.2,8.5-2.4,12.6-4.1c5-2,10.1-3,15.4-1
			c-6.8-0.8-13.1,0.6-19.2,3.7C113.2,392.6,107.3,393.2,101.3,392.6z"/>
		<path class="st1" d="M382.2,310.7c-2.7-2.9-3.1-6.7-4.1-10.3c-1.6-6.1-3.2-12.2-2.9-18.6c0-1-0.3-2.1,0.5-3
			c0,9.9,2.6,19.3,5.7,28.6C381.8,308.4,381.9,309.5,382.2,310.7z"/>
		<path class="st1" d="M1.8,318.8c1.1,3.3,0.4,6.8,0.4,10.2c0,4.3,2,7.5,5,10.2c0.9,0.8,2.3,1.2,1.9,2.9c-7.7-4.6-9.2-11.7-7.9-19.9
			C1.4,321.1,1.6,319.9,1.8,318.8z"/>
		<path class="st1" d="M177.2,382.8c0.3-2.5,2.3-1.6,3.7-2.2c2.8-1.3,5.5-0.8,8.2-1c3.4-0.2,6,1.8,8.7,3.5c0.8,0.5,0.8,1.4,0.7,2.3
			c-5.9-5.7-12.6-5.7-19.8-2.8C178.2,382.7,177.7,382.7,177.2,382.8z"/>
		<path class="st1" d="M6.8,293.7c1.4,3.6-1,6.8-1.2,10.2c-0.2,3.3-1.9,6.4-1.6,9.9c0.1,1.2-0.8,2.7-2,3.6
			C3.2,309.5,5.1,301.7,6.8,293.7z"/>
		<path class="st1" d="M9.1,342c0.4,0,0.9-0.1,1.2,0.1c4.8,2.5,9.6,2.4,14.5,0c0.4-0.2,1,0.1,1.5,0.1C20.6,345.3,14.8,347,9.1,342z"
			/>
		<path class="st1" d="M265,393.5c0-0.5-0.2-1.1,0.1-1.5c2.5-3.9,3.2-8.3,4.5-12.6c0.1-0.4,0.7-0.6,1.1-0.9
			C269.7,383.8,268.8,389.2,265,393.5z"/>
		<path class="st1" d="M359.8,200.7c-2.6,0.5-1.9-1.9-2.6-3c-1.4-2.6-2.6-5.4-2.1-8.4c0.2-1-0.1-2.6,1.8-2.2c-1.3,1.4-1.2,3-0.8,4.7
			C356.8,195,358.7,197.7,359.8,200.7z"/>
		<path class="st1" d="M138.5,386.1c5-0.7,9.6,0.7,14.2,2.4C147.9,388.1,143.2,387.3,138.5,386.1z"/>
		<path class="st1" d="M138.9,12.3c-4-0.9-8.7,0.8-11.9-3.1C131.1,9.8,135.1,10.9,138.9,12.3z"/>
		<path class="st1" d="M167.2,387.1c2.7-2.8,5.9-4.3,9.8-4.2C173.8,384.6,170.6,386.2,167.2,387.1z"/>
		<path class="st1" d="M375.6,277.5c-0.2-0.1-0.5-0.1-0.5-0.2c-0.8-3.5-1.5-7-2.3-10.6C375.1,269.9,375.7,273.6,375.6,277.5z"/>
		<path class="st1" d="M155.9,388.8c3.6-1.9,7.5-1.2,11.3-1.7C163.6,388.8,159.8,389.3,155.9,388.8z"/>
		<path class="st1" d="M8.1,285c1.6,3,1.3,5.6-1.1,7.5C7.4,290,7.8,287.5,8.1,285z"/>
		<path class="st1" d="M123.3,8.1c-2.7,2.1-4.7,1.1-6.3-1.4C119.2,6.7,121.2,7.5,123.3,8.1z"/>
		<path class="st1" d="M61.7,1.5c-0.6,2.1-2.3,2.6-4.3,2.7C58.5,2.7,60,1.9,61.7,1.5z"/>
		<path class="st1" d="M199.1,385.9c1.6-0.2,2.8,0.3,3.1,2C200.9,387.6,199.9,386.9,199.1,385.9z"/>
		<path class="st1" d="M143,13.5c-1.5,0.2-3,0.2-4.1-1.1C140.4,12.3,141.8,12.7,143,13.5z"/>
		<path class="st1" d="M16.1,234.8c0.1,1.4-0.2,2.4-1.8,2.6C14.6,236.3,15,235.3,16.1,234.8z"/>
		<path class="st1" d="M41.8,61.1c-0.5,2.1-1.8,1.4-3.1,0.9C39.7,61.7,40.7,61.4,41.8,61.1z"/>
		<path class="st1" d="M126.7,9.1c-0.8,0.1-1.6,0.4-2.1-0.6C125.3,8.4,126.1,8.5,126.7,9.1z"/>
		<path class="st1" d="M359.7,184.2c0-0.8,0.5-1.2,1.2-1.4C360.7,183.5,360.3,184,359.7,184.2z"/>
		<path class="st1" d="M358.9,185.3c0-0.6,0.2-1,0.8-1.1C359.6,184.7,359.4,185.1,358.9,185.3z"/>
		<path class="st1" d="M16.7,234.1c-0.2,0.2-0.4,0.5-0.6,0.7C16.3,234.6,16.5,234.3,16.7,234.1z"/>
		<path class="st1" d="M360.2,201.6c-0.4-0.2-0.5-0.4-0.4-0.9C359.9,201,360.1,201.3,360.2,201.6z"/>
		<path class="st1" d="M357.7,186.6c0-0.2,0-0.4,0-0.6l0,0c0.2,0,0.4,0,0.6,0C358.1,186.1,357.9,186.3,357.7,186.6z"/>
		<path class="st1" d="M354.5,177.8c4.1-7.4,4.8-15.7,5.6-23.8c1.4-14.2,1.8-28.5,2.4-42.8c0.2-5.2-1.1-10.4,0-15.6
			c0.5-2.4,1-4.9,1.4-7.4c1,1.3,0.7,2.9,0.4,4.2c-1.1,4.3-1.3,8.6-1.1,13c0.6,15.9-0.9,31.8-1.7,47.7c-0.4,7.8-1.9,15.5-5,22.8
			C356.1,176.9,355.8,177.8,354.5,177.8z"/>
		<path class="st1" d="M241.7,48.2c-9.2-1.9-18-4.9-27-7.7c-22.5-7.1-45.7-11.7-68.4-18.1c-0.8-0.2-1.6-0.5-2.4-0.8
			c1.3-1,2.6-0.3,3.9,0.1c8.6,2.3,17.1,4.8,25.9,6.6c4.6,0.9,9.1,2.7,13.7,3.6c10.7,2.1,20.7,6.4,31.3,8.8c3,0.7,5.9,2.1,8.9,3
			c4.1,1.2,8.2,2,12.2,3.5C240.5,47.4,241.4,47.3,241.7,48.2z"/>
		<path class="st1" d="M96.4,358.3c12.4,3.5,24.8,7,37.4,9.7c10.5,2.2,20.8,5,31.5,6.1c0.3,0,0.5,0.3,0.7,0.5
			c-3.1,1.9-5.9-0.4-8.8-0.8c-5.8-0.6-11.5-1.6-17.1-3c-4.4-1.1-8.7-2.9-13.1-3.3c-5.7-0.4-10.5-3.2-15.9-4.3
			c-4.2-0.9-8.3-2.1-12.6-3.1C97.2,360,96.8,359.2,96.4,358.3z"/>
		<path class="st1" d="M36.2,333.2c3.5,0.8,6.6,2.7,9.4,4.7c9.5,6.5,20,10.6,31,13.6c6.6,1.8,13,4.1,19.4,6.7
			c-5.3,0.3-9.7-2.4-14.5-3.9c-4.9-1.6-9.8-3-14.6-4.8c-3.6-1.3-7.5-1.2-10.7-4c-1.4-1.2-3.7-1.9-5.5-2.9c-4.8-2.5-8.9-6.2-14-8.3
			C36.4,334.1,36.4,333.6,36.2,333.2z"/>
		<path class="st1" d="M13.7,301.9c-0.2,7.4-2.4,14.6-3.5,21.8c-0.3,2.2-0.5,4.3,0.1,6.5c1.2,4.3,4.5,6.2,8.8,5
			c2.1-0.6,4.1-1.5,6.1-2.3c3.7-1.4,7.3-1.4,10.9,0.2c-6.6-0.4-12.8,1.9-19,3.4c-1.4,0.3-6.1-1.3-6.6-2.6c-2.1-5-1.8-10-0.6-15.3
			c1.1-4.7,3.2-9.4,2.1-14.5C11.5,302.6,12.7,302.4,13.7,301.9z"/>
		<path class="st1" d="M127.1,16.7c-9.9-2.4-19.7-5-29.8-6.5c-10.5-1.5-21-2.9-31.7-1.5c0.6-1,1.6-1.3,2.7-1.3
			c5.9,0,12-0.8,17.8,0.2c8.3,1.4,16.9,1.8,25,4.4c4.7,1.5,9.8,1.8,14.5,3.5C126.3,15.7,127,15.8,127.1,16.7z"/>
		<path class="st1" d="M21.8,242.3c-0.8,11.1-2,22.1-4.6,32.9c-0.2,1-0.6,2.1-0.3,3.1c1.8,6.7-0.8,12.9-2.2,19.2c-0.2,1-0.4,2-0.6,3
			c-1.5-3.7,0.5-7.1,1.3-10.5c0.3-1.3,0.8-2.5,0.8-3.9c0-6.6-0.8-13.4,1.4-19.8c2.4-6.9,2.3-13.8,2.4-20.8
			C20,244.4,20,242.8,21.8,242.3z"/>
		<path class="st1" d="M38.2,127c-0.8,3.6-0.2,7.2,0.1,10.8c0.5,5.7-1.4,11.1-2.4,16.6c-0.8,4.1-1.5,8.2-0.4,12.4
			c2,7.3-0.7,13.7-3.6,20c0-2.4,0-4.6,1.6-6.8c1.2-1.7,1.7-4,1.4-6.3c-1-8.4-1.1-16.7,0.7-25c0.8-3.6,2.1-7.1,1.8-10.9
			c-0.2-2.7-0.9-5.3-0.7-8.1C36.9,128.7,36.8,127.5,38.2,127z"/>
		<path class="st1" d="M166.5,374.6c2.5-0.8,5.1-0.2,7.7-0.6c3.2-0.4,5.1-2.4,4.5-5.4c-0.9-4.7,0.3-8.6,2.5-12.8
			c3.6-6.7,2.5-14.2,1.8-21.4c-0.1-0.6-0.2-1.2-0.2-1.8c2.3,1.7,1.8,4.6,2,6.8c0.6,4.7-0.7,9.4-0.7,14.2c0,2.1-2.4,5-3.8,7.4
			c-1.3,2.2-1.4,4.3-1,6.6c1.2,5.6,0.8,6.1-4.6,7.2C172,375.2,169.3,375.7,166.5,374.6z"/>
		<path class="st1" d="M48.3,68.2c-2.4,15.8-4.8,31.7-7.3,47.5c-1.8-0.6-1.3-2.2-0.9-3.1c1.7-4.1,1.4-8.5,2.2-12.7
			c0.7-3.7,1.2-7.5,2.3-11.1c0.3-1.1,0.4-2.3,0.3-3.4c-0.4-5,0.7-9.9,1.9-14.7C47,69.7,47.1,68.7,48.3,68.2z"/>
		<path class="st1" d="M283.1,258.7c-11.1,5.2-22.2,10.3-35,8.8c-2.9-0.3-5.7-1-8.2-2.6c2-0.3,3.8,0.6,5.7,1.1
			c6.3,1.6,12.4,0.6,18.6-1c5.5-1.4,10.2-4.3,15.5-6C280.9,258.7,282,258.7,283.1,258.7z"/>
		<path class="st1" d="M348.2,73.8c-4.9-1.4-9.9-1.9-15-2.6c-4.6-0.6-8.8-2.3-12.9-4.3c-3.8-1.9-7.5-4-11.6-5.2
			c1.2-0.8,2.2-0.3,3.5,0.1c4.7,1.8,9.1,4.3,13.6,6.4c4.6,2.2,9.7,1.8,14.4,3C343,71.9,346.1,71.4,348.2,73.8z"/>
		<path class="st1" d="M62.6,11.1c-3.5,6.5-2.6,13.6-3,20.5c-0.3,5.5-1.2,10.7-3.4,15.8c-0.3-2.9,0.9-5.6,1.6-8.2
			c0.7-2.7,0.9-5.3,0.9-8c-0.1-5.6-0.1-11.2,1.4-16.7C60.4,13.2,60.3,11.2,62.6,11.1z"/>
		<path class="st1" d="M169,320.1c-4.3-2.1-8.9-3.3-13.3-5.1c-3.7-1.4-7.1-3.4-9.3-6.8c2.2,1.4,4.8,1.8,6.7,3.9
			c1.1,1.3,3.1,2.1,5.1,2.6c3,0.7,5.8,1.9,8.6,3.1C167.7,318.2,169,318.7,169,320.1z"/>
		<path class="st1" d="M30.1,202.3c-3.1,8.9-4.4,18.1-4.8,27.5c-0.3-0.2-0.8-0.4-0.8-0.5c0.6-3.3-0.4-6.6,0.1-9.8
			c0.7-4.9,2.3-9.6,3.5-14.4C28.3,204,28.6,202.7,30.1,202.3z"/>
		<path class="st1" d="M320.1,176.4c0.4,0.2,0.7,0.5,1.1,0.5c7.9,0.1,14.9,4.4,22.6,5.4c-3.7,1.4-7.1-0.4-10.4-1.5
			c-3.1-1-6.4-1.2-9.3-2.4C322.8,177.8,320.7,178.6,320.1,176.4z"/>
		<path class="st1" d="M364.4,86.3c-0.1-1.2-0.1-2.5-0.3-3.7c-0.5-3.9-2.1-5.4-6-5.7c-3.6-0.2-6.9-1.1-9.9-3.1
			c2.7-0.1,5.1,1.4,7.8,1.8c1.1,0.2,2.2,0.6,3.3,0.7C364.3,76.6,366.8,81.6,364.4,86.3z"/>
		<path class="st1" d="M307.5,61.3c-6.3,0.5-12.6,1-18.8-0.8c0.7-0.7,1.6-0.6,2.3-0.5c4.9,0.8,9.9,0.6,14.8,0.6
			C306.6,60.6,307.2,60.6,307.5,61.3z"/>
		<path class="st1" d="M138.3,296.9c-3.4-4.4-5.8-9.4-8.3-14.2c2.7-0.1,1.9,3.5,4.2,3.8c-0.3,3.4,3.6,4.8,3.8,8
			C137.9,295.3,138.4,296.1,138.3,296.9z"/>
		<path class="st1" d="M305.3,203c-1.8,6.4-0.6,12.6,1.7,18.7c-1.2,0-1.7-0.9-1.8-1.8c-0.2-2.3-1.1-4.4-1.8-6.6
			C302.2,209.5,303,206.1,305.3,203z"/>
		<path class="st1" d="M145.8,307.6c-3.1-3.2-5.5-6.8-7.5-10.7c0.3,0,0.7,0,0.9,0.1C142.2,300.1,144.8,303.3,145.8,307.6z"/>
		<path class="st1" d="M263.7,53.7c-5.6-1.3-11.2-2.4-16.7-4.3C252.8,49.7,258.4,51,263.7,53.7z"/>
		<path class="st1" d="M31.8,187.2c-0.3,3.2-0.7,6.3,0.5,9.4c0.5,1.1,0,2-0.8,2.8c-0.3-3-1.5-5.8-1.5-8.8
			C30,189,30,187.6,31.8,187.2z"/>
		<path class="st1" d="M286.8,60c-5-0.6-9.9-1.8-14.6-3.7C277.3,56.8,282.3,57.3,286.8,60z"/>
		<path class="st1" d="M142.7,21.2c-5.3-1.2-10.5-2.7-15.6-4.5c5.1,0.2,9.8,2.1,14.6,3.4C142.1,20.2,142.4,20.8,142.7,21.2z"/>
		<path class="st1" d="M25.1,231.1c1.3,4.2-1.5,7.2-3.1,10.5c-0.4-1.7,0-3.1,0.9-4.7C23.8,235.1,24.3,233,25.1,231.1z"/>
		<path class="st1" d="M54.6,51.9c-1.4,4.4-3.1,8.7-5.1,12.8C49.8,59.9,51.6,55.7,54.6,51.9z"/>
		<path class="st1" d="M329.5,237.9c4.4,0.6,8.7,1.7,13-0.2c-0.9,2.6-3.5,1.6-5.1,1.8C334.8,240,331.6,240.9,329.5,237.9z"/>
		<path class="st1" d="M182.8,332.6c-1.2-3.4-4.5-4.6-7-6.8C181.2,326.3,182.8,327.9,182.8,332.6z"/>
		<path class="st1" d="M40.8,117c-0.2,3.4-1.2,6.7-2.6,9.8C38.2,123.3,37.8,119.7,40.8,117z"/>
		<path class="st1" d="M318.6,246.9c-4.1,0.2-7.9,1.4-11.6,3.2c2.2-3.7,6-3.1,9.5-3.5C317.2,246.5,317.9,246.8,318.6,246.9z"/>
		<path class="st1" d="M307.1,250c-2.8,1.7-5.7,3.1-8.9,3.7C300.8,251.8,303.2,249.1,307.1,250z"/>
		<path class="st1" d="M324.4,189.5c-3.4,0.5-6.8,1.4-10,2.7c0.5-2.9,3.3-2,4.9-2.9C320.8,188.6,322.8,188.6,324.4,189.5z"/>
		<path class="st1" d="M297.8,253.7c-3.3,1.5-6.8,2.2-10.3,3.1c0-0.7,0.3-1.2,1-1.3C291.6,254.9,294.6,253.6,297.8,253.7z"/>
		<path class="st1" d="M320.7,234.8c2.2,0.8,4.3,1.6,6.5,2.5C324.8,237.1,321.8,238.4,320.7,234.8z"/>
		<path class="st1" d="M308.8,225.3c1.7,1.9,3.4,3.8,5,5.7C310.8,230.5,309,228.5,308.8,225.3z"/>
		<path class="st1" d="M313.9,231c1.9,1.1,3.8,2.1,5.6,3.2C316.7,234.7,314.8,233.7,313.9,231z"/>
		<path class="st1" d="M271.8,56.2c-2.7-0.4-5.3-1.3-7.9-2.4C266.8,53.9,269.6,54.1,271.8,56.2z"/>
		<path class="st1" d="M126.3,277.5c-3-1.8-1.3-5.2-2.5-7.6c0.5,0,1.2,0.2,1.2,0.8C124.7,273.2,126.1,275.2,126.3,277.5z"/>
		<path class="st1" d="M332.5,253.1c-1.6-1.7-3.4-3.1-5.4-4.3C329.8,249.2,332.4,249.6,332.5,253.1z"/>
		<path class="st1" d="M345.2,182.4c2.1-0.5,4.1-1,6.2-1.5C349.8,183.4,347.5,183,345.2,182.4z"/>
		<path class="st1" d="M338.2,190.5c-2.3-0.3-4.5-0.6-6.8-0.9C333.7,189.2,336.2,187.8,338.2,190.5z"/>
		<path class="st1" d="M172.7,323.3c-1.4-0.9-2.7-1.9-3.7-3.2C171.2,320,172.4,321.2,172.7,323.3z"/>
		<path class="st1" d="M307.2,198.8c-0.7,1.4-1.3,2.8-2,4.2C305.5,201.4,303.5,198.8,307.2,198.8z"/>
		<path class="st1" d="M327,248.7c-1.9-0.5-3.8-1-5.6-1.4C323.6,246.2,325.4,247,327,248.7z"/>
		<path class="st1" d="M56.2,47.4c-0.2,1.7-0.8,3.2-1.7,4.6C54.3,50.2,54.3,48.4,56.2,47.4z"/>
		<path class="st1" d="M306.9,221.6c0.6,1.3,1.3,2.5,1.9,3.8C306.7,224.9,307,223.2,306.9,221.6z"/>
		<path class="st1" d="M246.1,49.3c-1.6,0-3.1-0.4-4.5-1.2C243.3,48,244.9,47.8,246.1,49.3z"/>
		<path class="st1" d="M314.2,192.3c-0.8,0.8-1.7,1.5-2.8,1.8C311.1,191.8,312.7,192.2,314.2,192.3z"/>
		<path class="st1" d="M31.5,199.5c-0.4,1-0.6,2.1-1.5,2.9C30.3,201.3,28.7,199.3,31.5,199.5z"/>
		<path class="st1" d="M286.2,257.4c-0.5,0.4-1.1,0.8-1.8,0.7C284.6,256.7,285.1,256.4,286.2,257.4z"/>
		<path class="st1" d="M353.1,179.5c0.3-0.8,0.7-1.3,1.4-1.7C354.5,178.7,354.6,179.7,353.1,179.5z"/>
		<path class="st1" d="M174.3,324.7c-0.6-0.4-1.3-0.7-1.6-1.5C173.7,323.3,174.9,323,174.3,324.7z"/>
		<path class="st1" d="M129.5,281.9c-0.7-0.4-1.1-1.1-1.3-1.9C129.6,280,129.6,280.9,129.5,281.9z"/>
		<path class="st1" d="M175.8,325.8c-0.6-0.1-1.1-0.5-1.4-1C175.4,324.3,175.8,324.8,175.8,325.8z"/>
		<path class="st1" d="M308.2,197.2c-0.3,0.5-0.7,1-1,1.5C306.8,197.7,307.2,197.3,308.2,197.2z"/>
		<path class="st1" d="M127.4,278.9c-0.6-0.3-0.9-0.8-1.1-1.4C127.3,277.5,127.7,277.9,127.4,278.9z"/>
		<path class="st1" d="M310,195.3c-0.3,0.5-0.6,1.1-1.2,1.3C308.8,195.8,309.2,195.4,310,195.3z"/>
		<path class="st1" d="M333.2,254.6c-0.5-0.4-0.7-0.9-0.7-1.5C333.3,253.3,333.2,253.9,333.2,254.6z"/>
		<path class="st1" d="M319.5,234.2c0.5,0,1,0.2,1.3,0.6C320.2,234.8,319.7,234.7,319.5,234.2z"/>
		<path class="st1" d="M284.4,258.1c-0.3,0.5-0.8,0.6-1.3,0.6C283.4,258.1,283.8,258,284.4,258.1z"/>
		<path class="st1" d="M128.2,280c-0.3-0.4-0.6-0.7-0.9-1.1C128.2,278.9,128.3,279.4,128.2,280z"/>
		<path class="st1" d="M351.3,180.9c0.4-0.3,0.8-0.5,1.2-0.8C352.5,180.8,351.9,180.9,351.3,180.9z"/>
		<path class="st1" d="M123.9,270c-0.5-0.3-0.6-0.8-0.6-1.3C123.8,268.9,123.9,269.4,123.9,270z"/>
		<path class="st1" d="M123.2,268.7c-0.5-0.3-0.6-0.8-0.7-1.3C123.2,267.6,123.3,268.1,123.2,268.7z"/>
		<path class="st1" d="M48.7,66.9c0,0.5,0.1,1.1-0.5,1.4C48.1,67.7,48.1,67.2,48.7,66.9z"/>
		<path class="st1" d="M327.6,237.4c0.6-0.1,1.1,0,1.5,0.5C328.5,238,328,237.9,327.6,237.4z"/>
		<path class="st1" d="M63.8,9.8c-0.2,0.2-0.4,0.4-0.7,0.7C63.4,10.3,63.6,10.1,63.8,9.8z"/>
		<path class="st1" d="M146.4,308.3c-0.2-0.2-0.4-0.5-0.7-0.7C146,307.8,146.2,308,146.4,308.3z"/>
		<path class="st1" d="M65.4,8.7c-0.3,0.2-0.7,0.4-1,0.6C64.6,8.9,65,8.7,65.4,8.7z"/>
		<path class="st1" d="M63.2,10.5c-0.2,0.2-0.4,0.5-0.6,0.7C62.7,10.9,63,10.7,63.2,10.5z"/>
		<path class="st1" d="M129.9,282.7c-0.2-0.3-0.3-0.5-0.5-0.8C129.8,282,130,282.3,129.9,282.7z"/>
		<path class="st1" d="M308.8,196.6c-0.2,0.2-0.4,0.4-0.6,0.7C308.4,197.1,308.6,196.8,308.8,196.6z"/>
		<path class="st1" d="M310.7,194.7c-0.2,0.2-0.5,0.4-0.7,0.6C310.3,195.1,310.5,194.9,310.7,194.7z"/>
		<path class="st1" d="M357.7,185.9c-0.1-0.1-0.2-0.1-0.2-0.2C357.5,185.8,357.6,185.9,357.7,185.9
			C357.7,185.9,357.7,185.9,357.7,185.9z"/>
		<path class="st1" d="M352.4,180.1c0.2-0.2,0.5-0.4,0.7-0.7C353.1,179.9,352.9,180.1,352.4,180.1z"/>
		<path class="st1" d="M342.5,237.8c0.3-0.2,0.5-0.3,0.8-0.5C343,237.5,342.7,237.7,342.5,237.8z"/>
		<path class="st1" d="M49.4,65c0,0.2-0.1,0.4-0.1,0.6C48.8,65.3,49,65.1,49.4,65z"/>
	</g>
</g>
</svg>
